<?xml version="1.0" encoding="UTF-8"?>
<svg id="Layer_1" data-name="Layer 1" xmlns="http://www.w3.org/2000/svg" viewBox="0 0 458.87 442.13">
  <defs>
    <style>
      .cls-1 {
        fill: #956e51;
      }

      .cls-2 {
        fill: #23130c;
      }

      .cls-3 {
        fill: #7c5942;
      }
    </style>
  </defs>
  <path class="cls-3" d="M180.97,298.3c-1.23-.64-2.34-1.51-3.54-2.22-9.29-5.51-18.04-11.8-26.85-18.02,1.63-1.62,2.39-4.35,1.29-6.6-4.61-9.47-13.87-16.82-22.85-21.98-10.47-6.01-18.72-12.18-26.62-20.74-.5-1.03-1-2.07-1.48-3.11-.95-2.38-1.99-4.73-3.23-7.05-2.03-3.77-5.72-3.72-8.26-1.81-.28-.36-.56-.7-.85-1.07-.36,.37-.72,.6-.69,.75,.1,.5,.2,1,.3,1.5-1.4,1.73-2.02,4.17-.93,6.73,1.36,3.19,2.78,6.43,4.26,9.65,.39,1.89,.76,3.79,1.16,5.68,2.24,10.78,5.84,21.15,9.25,31.59,4.55,13.94,10.19,27.44,15.61,41.04,5.37,13.5,8.86,27.55,10.57,41.97,.91,7.67,.29,15.35-2.36,22.7-1.35,3.77-2.85,7.49-4.48,11.14-2.68,5.98-7.2,10.16-13.11,12.94-2.52,1.19-5.01,2.47-7.36,3.95-1.11,.7-2.05,1.87-2.73,3.03-1.09,1.83-.81,3.63,.71,5.25,2.06,2.18,4.09,4.27,7.39,4.47,.97,.06,2.12,.53,2.82,1.19,1.59,1.51,3.35,1.6,5.33,1.32,1.89-.27,3.81-.4,5.72-.54,8.23-.65,16.14-2.7,23.78-5.76,1.89-.76,3.82-1.89,5.22-3.34,6.42-6.67,12.58-13.59,16.08-22.34,1.62-4.04,3.06-8.16,4.33-12.32,3.15-10.33,6.13-20.74,7.93-31.4,1.44-8.58,3.33-17.1,3.82-25.84,.24-4.16,1.12-8.28,1.72-12.42,.15-1.03,.36-2.06,.51-3.09,.33-2.28-.24-4.11-2.44-5.26Z"/>
  <path class="cls-2" d="M47.52,39.61c-2.05-1.88-4.23-3.64-6.09-5.7-2.71-2.98-3.88-6.69-3.35-10.65,.48-3.61,1.33-7.2,2.36-10.7,.94-3.18,2.52-6.13,4.85-8.58C49.15-.07,54.07-1.15,59.1,1.29c2.32,1.12,4.66,2.54,6.46,4.34,4.79,4.78,8.58,10.15,7.84,17.49-.05,.45,.29,.95,.53,1.69,2.07-.57,4.07-1.1,6.06-1.67,5.98-1.7,11.98-2.17,18.02-.3,2.83,.88,5.75,1.53,8.45,2.7,2.57,1.12,5,1.27,7.58,.42,.33-.11,.67-.19,1.01-.28,9.49-2.31,18.67-1.26,27.61,2.51,1.61,.68,3.24,1.28,4.82,2.03,1.49,.71,2.92,1.57,4.48,2.42,1.01-1.7,1.85-3.22,2.8-4.67,3.16-4.85,7.35-8.38,13.12-9.68,6.51-1.46,12.13-.11,16.23,5.53,1.02,1.4,1.97,2.88,2.76,4.42,2.77,5.39,3.75,11.19,3.74,17.2,0,1.18,.15,2.37,.24,3.58,3.6,1.53,7.2,2.01,10.82,2.51,7.77,1.07,15.57,2.05,22.97,4.81,7.51,2.8,15.03,5.59,22.4,8.72,10.34,4.38,19.84,10.22,27.99,18.01,4.16,3.97,8.09,8.18,11.98,12.41,1.72,1.87,3.62,3.22,6.1,3.75,4.93,1.06,9.83,2.4,14.8,3.18,10.84,1.71,21.67,3.37,32.33,6.08,6.74,1.72,13.62,2.97,20.51,4,7.42,1.11,14.8,2.34,22.05,4.22,12.67,3.28,24.26,8.67,33.98,17.65,5.66,5.23,10.49,11.18,15.07,17.34,3.22,4.34,6.48,8.67,8.78,13.59,3.17,6.79,6.48,13.53,9.26,20.48,3.82,9.55,6.95,19.34,8.09,29.66,.92,8.33,.75,16.71,.88,25.06,.13,8.36-.46,16.69-1.37,25.03-1.14,10.43-2.96,20.68-5.64,30.8-3.54,13.38-8.53,26.22-15.79,38.01-11.24,18.25-19.34,37.81-25.24,58.34-1.25,4.35-2.28,8.78-3.74,13.06-3.34,9.82-9.52,17.41-18.83,22.08-5.75,2.89-11.76,5.29-17.72,7.75-2.56,1.06-5.25,1.9-7.97,2.48-12.81,2.73-25.6,2.38-38.36-.5-6.03-1.36-11.64-3.58-16.57-7.39-.68-.52-1.45-.95-2.25-1.27-2.91-1.17-5.89-2.16-8.74-3.43-2.22-.99-4.44-2.09-6.39-3.52-6.59-4.8-7.62-11.73-2.7-18.18,2.11-2.76,4.48-5.34,6.88-7.85,1.42-1.48,2.19-3.05,2.22-5.1,.05-4.78-.5-9.44-2.97-13.62-2.57-4.34-5.19-8.67-8.05-12.83-4.47-6.49-8.71-13.05-10.72-20.8-.14-.56-.59-1.04-1-1.74-1.21,8.48-2.34,16.59-3.52,24.68-1.57,10.74-4.33,21.14-8.67,31.12-2.31,5.33-5.34,10.16-8.99,14.66-5.96,7.36-13.14,13.45-20.29,19.57-4.47,3.82-9.73,5.87-15.59,6.82-10.54,1.7-21.09,2.53-31.75,1.83-2.42-.16-4.76-.28-7.12,.93-2.53,1.3-4.21,.61-5.85-1.65-.41-.56-.74-1.18-1.06-1.8-3.73-7.29-3.33-14.44,.81-21.42,2.78-4.68,6.17-8.86,10.38-12.35,5.01-4.15,7.96-9.58,9.85-15.71,3.1-10.05,3.16-20.26,1.67-30.54-1.23-8.45-2.59-16.87-3.93-25.3-.24-1.51-.71-2.98-1.26-5.24-1.82,4.89-2.14,9.26-2.89,13.51-2.88,16.36-7.51,32.22-13.3,47.76-1.71,4.59-3.79,9.05-6.82,12.9-3.77,4.79-7.8,9.37-11.86,13.91-1.25,1.4-2.81,2.71-4.5,3.51-3.45,1.65-7.01,3.11-10.63,4.32-7.3,2.44-14.85,3.72-22.53,4.22-3.13,.2-6.25,.48-9.37,.7-1.42,.1-2.79-.07-3.96-.98-3.3-2.56-6.69-5.03-9.89-7.71-3.84-3.23-4.95-7.39-3.67-12.26,1.02-3.89,2.98-7.07,6.53-9.07,3.34-1.88,6.69-3.75,10.14-5.41,2.95-1.42,5.19-3.51,6.8-6.28,6.07-10.43,8.81-21.59,6.88-33.62-2.55-15.9-7.09-31.21-13.31-46.09-8.22-19.64-14.92-39.83-19.52-60.64-2.82-12.76-5.14-25.64-4.41-38.84,.04-.64-.26-1.29-.37-1.79-1.69-.83-3.16-1.12-4.77-.62-1.46,.45-2.8-.12-3.9-1.01-1.07-.87-2.09-1.85-2.94-2.93-4.07-5.22-8.12-10.46-12.08-15.77-4.62-6.2-8.73-12.65-9.25-20.69-.01-.17-.08-.34-.1-.51-.21-1.46-.86-2.63-2.13-3.43-2.36-1.47-4.61-3.16-7.1-4.35-4.45-2.13-8.6-4.58-12.02-8.19-.83-.88-1.82-1.63-2.81-2.32-6.53-4.55-11.57-10.51-15.83-17.13-2.07-3.21-3.9-6.57-5.99-9.79-3.2-4.93-4.3-10.27-.88-15.72,.18-.29,.26-.64,.39-.97,1.01-2.52,2.73-4.46,5.05-5.81,2.56-1.48,5.12-3.01,7.8-4.23,3.82-1.74,7.41-3.84,11.04-5.93,2.92-1.68,4.72-3.98,5.85-7.03,1.94-5.23,3.88-10.46,5.99-15.62,1.25-3.05,2.75-6.01,4.27-8.94,1.12-2.16,2.41-4.24,3.71-6.31,1.28-2.04,2.66-4.01,4.14-6.22-1.06-.92-1.96-1.69-2.83-2.48Zm224.04,220.64c1.25,7.38,2.47,14.77,3.65,22.17,.16,1.02,.12,2.09,.11,3.13-.03,10.28-.08,20.56-.11,30.84,0,1.21,.08,2.41,.11,3.45,11.42,5.79,23.39,6.59,35.48,5.53,1.09-1.31,.66-2.52,.51-3.7-1.09-8.81-2.45-17.6-3.2-26.45-.66-7.79-1.14-15.62-.11-23.46,.81-6.22,1.14-12.49,1.93-18.72,1.01-7.98,2.98-15.74,6.02-23.21,.37-.91,.96-1.73,1.94-3.48,.17,1.79,.35,2.58,.31,3.35-.22,3.65-.53,7.3-.74,10.95-.18,3.12-.28,6.25-.4,9.38-.04,1.04,.02,2.09-.06,3.13-.39,5.39-.82,10.77-1.22,16.16-.87,11.53-.01,22.98,1.79,34.37,.76,4.82,1.4,9.65,2.13,14.48,1.97,13.1,4.71,26.04,8.39,38.77,2.03,7.03,4.22,14.02,6.24,21.05,.96,3.35,1.66,6.76,2.55,10.13,1,3.79,.06,7.23-1.71,10.56-2.02,3.8-5.09,6.58-8.57,9-2.98,2.07-6.47,3.36-9,6.16-.75,.84-2.15,1.1-3.25,1.62-1.25,.59-2.5,1.18-4.02,1.89,.33,1.07,.43,2.14,.95,2.91,2,2.98,4.76,4.99,8.17,6.23,4.63,1.68,9.45,2.54,14.27,3.11,8.33,.98,16.71,1.03,24.98-.74,3.22-.69,6.45-1.57,9.5-2.79,5.18-2.07,10.26-4.39,15.31-6.75,6.78-3.18,11.4-8.52,14.34-15.27,1.32-3.02,2.23-6.23,3.17-9.41,3.5-11.9,7.9-23.42,13.34-34.59,5.12-10.52,10.85-20.65,16.99-30.59,2.92-4.72,5.22-9.86,7.4-14.98,6.93-16.34,10.89-33.42,12.35-51.1,.41-5.03,1.14-10.07,1.14-15.1,0-9.93-.32-19.86-.73-29.78-.22-5.23-1.43-10.34-2.84-15.39-3.38-12.15-8.5-23.59-14.13-34.84-2.99-5.97-7.14-11.15-11.14-16.42-3.59-4.72-7.5-9.14-11.93-13.14-6.86-6.19-14.79-10.43-23.42-13.44-8.08-2.82-16.42-4.72-24.88-5.93-10.71-1.53-21.23-3.9-31.73-6.46-6.25-1.52-12.64-2.53-18.96-3.76-4.44-.86-8.88-1.73-13.33-2.56-.31-.06-.66,.12-1.01,.19-.61,1,.21,1.58,.73,2.16,5.98,6.81,12,13.59,17.97,20.4,1.26,1.43,2.45,2.94,3.5,4.53,.73,1.11,.49,2.66-.29,3.41-.81,.77-1.82,1.02-2.9,.78-2.08-.46-3.96-1.35-5.46-2.91-2.17-2.26-4.4-4.48-6.49-6.82-7.32-8.19-14.55-16.45-21.88-24.63-3.84-4.28-7.71-8.55-11.74-12.65-6.9-7.03-14.81-12.68-23.72-16.92-11.35-5.4-22.87-10.35-35.17-13.2-2.54-.59-5.13-.98-7.7-1.44-5.47-.99-10.94-1.96-16.71-2.99-1.43,2.25-2.85,4.61-4.4,6.88-1.13,1.65-1.02,3.25-.18,4.92,2.12,4.23,4.74,8.11,7.96,11.6,4.5,4.9,8.27,10.32,11.46,16.17,4.26,7.82,6.46,16.22,6.53,25.04,.04,5.41-1.25,10.74-3.64,15.67-1.51,3.12-3.86,4.28-6.74,3.73-1.99-.38-3.07-2.45-1.83-3.91,5.58-6.58,5.73-14.29,4.74-22.23-.92-7.38-3.51-14.19-7.59-20.41-2.2-3.35-4.42-6.69-6.64-10.03-3.2-4.82-5.85-9.9-7.31-15.55-.13-.49-.43-.92-.76-1.61-1.33,.43-2.62,.87-3.92,1.27-1.87,.57-3.77,.65-5.68,.17-1.67-.43-2.63-2.28-1.68-3.66,.97-1.4,2.1-2.95,3.53-3.71,3.52-1.88,6.36-4.18,7.81-8.03,1.7-4.54,2-9.16,1.1-13.88-.56-2.93-1.47-5.75-3.09-8.28-2.44-3.81-5.13-4.8-9.35-3.08-2.4,.98-4.73,2.27-6.83,3.79-3.73,2.69-5.9,6.33-5.71,11.13,.05,1.38-.06,2.76-.17,4.14-.05,.6-1.29,1.03-1.72,.58-.7-.73-1.57-1.49-1.85-2.4-.66-2.15-1.01-4.4-1.59-7.08-1.04-1.34-2.73-2.42-4.89-2.84-6.16-1.18-12.3-2.45-18.59-2.78-2.82-.15-5.57,.1-8.27,.91-4.34,1.3-8.68,2.61-13.03,3.86-1.16,.33-2.36,.69-3.55,.7-2.3,.03-3.95-1.98-3.43-4.23,.3-1.31,1.06-2.51,1.65-3.83-.52-.14-1.01-.39-1.5-.39-12.36,.06-23.74,3.33-33.86,10.55-1.4,1-2.67,2.25-3.73,3.6-4.54,5.75-8.66,11.81-12.28,18.19-.86,1.51-1.54,3.13-2.18,4.74-2.33,5.83-4.73,11.63-6.86,17.52-1.69,4.69-4.76,7.88-9.04,10.36-4.85,2.81-9.95,5.01-15.09,7.19-.78,.33-1.52,.78-2.76,1.42,2.4,1.44,4.7,1.99,6.83,2.88,2.25,.93,4.54,1.76,6.86,2.52,1.65,.54,3.42,.75,5.05,1.35,4.89,1.79,6.26,7.22,2.6,10.94-1.54,1.57-3.63,2.7-5.64,3.66-2.5,1.2-5.17,2.03-8.13,3.15,.49,.79,.8,1.55,1.33,2.12,2.17,2.34,4.75,4.08,7.85,4.97,.5,.14,1.01,.29,1.49,.5,6.68,2.87,12.93,1.65,18.97-1.91,1.11-.65,2.04-2.11,3.65-1.33,1.01,.49,.3,2.32-1.68,4.37-2.72,2.81-5.93,4.85-9.62,6.11-1.48,.51-2.98,.94-4.43,1.4-.27,1.19,.58,1.61,1.27,2.05,4.29,2.67,8.44,5.64,12.94,7.89,5.74,2.87,11.65,5.54,18.36,5.37,2.61-.07,5.23,.12,7.84,.2,.52,.01,1.05,0,1.57,.03,.88,.06,1.74,.2,2.1,1.18,.29,.79-.41,1.68-1.75,2.23-.64,.27-1.29,.55-1.97,.7-4.08,.92-8.14,1.92-12.26,2.64-3.12,.54-6.24,.11-9.34-.61-1.1-.26-2.29-.12-3.84-.17,.49,1.52,.68,2.75,1.26,3.75,1.13,1.96,2.37,3.87,3.75,5.65,2.77,3.58,5.67,7.07,8.52,10.59,.88,1.09,1.7,2.18,3.36,2.16,1.22-.01,1.7,1.08,2.23,1.97,1.43,2.41,3.17,4.51,5.77,6.43,.33-1.17,.61-1.95,.77-2.75,.28-1.36,1.17-2.07,2.42-2.47,1.95-.62,3.69,.05,4.15,1.97,2.24,9.38,7.24,17.26,13.08,24.72,.53,.68,.96,1.46,1.32,2.24,.57,1.24,.3,2.38-.63,3.36-1.01,1.06-2.65,1.52-3.81,.77-1.14-.74-2.18-1.71-3.09-2.74-1.37-1.55-2.59-3.24-3.92-4.92-.36,.37-.72,.6-.69,.75,1.57,7.86,3.16,15.71,4.79,23.56,2.24,10.78,5.84,21.15,9.25,31.59,4.55,13.94,10.19,27.44,15.61,41.04,5.37,13.5,8.86,27.55,10.57,41.97,.91,7.67,.29,15.35-2.36,22.7-1.35,3.77-2.85,7.49-4.48,11.14-2.68,5.98-7.2,10.16-13.11,12.94-2.52,1.19-5.01,2.47-7.36,3.95-1.11,.7-2.05,1.87-2.73,3.03-1.09,1.83-.81,3.63,.71,5.25,2.06,2.18,4.09,4.27,7.39,4.47,.97,.06,2.12,.53,2.82,1.19,1.59,1.51,3.35,1.6,5.33,1.32,1.89-.27,3.81-.4,5.72-.54,8.23-.65,16.14-2.7,23.78-5.76,1.89-.76,3.82-1.89,5.22-3.34,6.42-6.67,12.58-13.59,16.08-22.34,1.62-4.04,3.06-8.16,4.33-12.32,3.15-10.33,6.13-20.74,7.93-31.4,1.44-8.58,3.33-17.1,3.82-25.84,.24-4.16,1.12-8.28,1.72-12.42,.15-1.03,.36-2.06,.51-3.09,.33-2.28-.24-4.11-2.44-5.26-1.23-.64-2.34-1.51-3.54-2.22-9.76-5.79-18.93-12.44-28.19-18.97-7.55-5.32-13.28-12.27-18.12-20.03-.36-.58-.68-1.23-.86-1.89-.61-2.32,1.82-4.66,4.08-3.89,.96,.33,1.93,.88,2.65,1.59,1.24,1.21,2.41,2.53,3.41,3.94,4.61,6.5,10.51,11.6,17.11,15.96,3.05,2.02,6.13,4,9.17,6.04,4.33,2.93,8.68,5.84,12.29,9.7,.56,.6,1.36,.99,2.59,1.85-.23-2.63-.44-4.65-.57-6.67-.21-3.12-.39-6.25-.54-9.37-.13-2.61-.14-5.23-.34-7.83-.27-3.53,.26-6.95,1-10.37,.11-.49,.31-1.03,.64-1.4,.31-.34,.87-.7,1.28-.65,.41,.04,1.09,.56,1.1,.89,.17,7.44,3.18,14.25,4.63,21.4,.94,4.61,1.61,9.26,2.38,13.9,1.8,10.83,4.31,21.51,6.49,32.25,1.39,6.82,2.32,13.74,3.22,20.65,.85,6.56,1.39,13.16,2.06,19.74,.87,8.6-.04,17.04-2.24,25.38-2.41,9.16-6.77,17.14-13.93,23.47-3.3,2.92-5.94,6.35-8.11,10.17-1.44,2.53-1.81,5.24-1.48,8.08,.21,1.76,.93,2.48,2.64,2.68,.52,.06,1.05,.1,1.57,.08,10.79-.43,21.58-.65,32.24-2.79,5.49-1.1,10.28-3.31,14.31-7.1,4.95-4.65,9.83-9.39,14.63-14.19,4.88-4.88,8.27-10.75,10.97-17.05,3.52-8.22,5.85-16.78,7.31-25.57,1.35-8.07,2.51-16.18,3.74-24.27,.13-.86,.21-1.73,.27-2.6,1.19-16.34,2.59-32.68,2.7-49.07,.07-10.11,1.45-20.15,1.45-30.26,0-.79,.39-1.58,.59-2.37,.35-.03,.7-.07,1.05-.1,.32,.94,.78,1.86,.94,2.83Zm35.9,146.99c2.85-1.3,5.7-2.6,8.59-3.83,3.61-1.54,6.5-4.03,9.08-6.89,2.1-2.32,3.1-4.98,2.18-8.17-.77-2.67-1.35-5.41-2.15-8.07-4.35-14.52-8.53-29.08-11.5-43.96-.2-.99-.58-1.95-.96-3.2-11.64,2.62-22.94,2.15-33.83-2.21-.89,.54-.84,1.22-.54,1.87,4.46,9.63,8.46,19.46,15.44,27.75,3.34,3.97,5.85,8.65,8.61,13.08,2.64,4.24,3.82,8.94,3.92,13.91,.04,1.92,0,3.83,0,5.75,0,4.24-1.6,7.76-4.68,10.68-1.76,1.68-3.44,3.46-5,5.33-1.74,2.09-1.59,2.96,.5,4.81,.37,.33,.91,.45,1.65,.8,3.31-5.05,3.59-5.31,8.7-7.65ZM65.16,28.59c3.14-2.14,3.85-5.26,1.98-8.61-.66-1.19-1.46-2.45-2.52-3.26-2.61-1.99-5.34-3.86-8.16-5.54-2.05-1.22-3.7-.72-4.86,1.3-2.19,3.83-3.23,8.01-3.37,12.41-.05,1.47,.67,2.67,1.61,3.73,1.84,2.09,3.82,4.01,6.78,5.41,3.01-1.9,5.83-3.59,8.54-5.44Z"/>
  <path class="cls-1" d="M451.48,218.54c-.22-5.23-1.43-10.34-2.84-15.39-3.38-12.15-8.5-23.59-14.13-34.84-2.99-5.97-7.14-11.15-11.14-16.42-3.59-4.72-7.5-9.14-11.93-13.14-6.86-6.19-14.79-10.43-23.42-13.44-8.08-2.82-16.42-4.72-24.88-5.93-10.71-1.53-21.23-3.9-31.73-6.46-6.25-1.52-12.64-2.53-18.96-3.76-4.44-.86-8.88-1.73-13.33-2.56-.31-.06-.66,.12-1.01,.19-.61,1,.21,1.58,.73,2.16,5.98,6.81,12,13.59,17.97,20.4,1.26,1.43,2.45,2.94,3.5,4.53,.73,1.11,.49,2.66-.29,3.41-.81,.77-1.82,1.02-2.9,.78-2.08-.46-3.96-1.35-5.46-2.91-2.17-2.26-4.4-4.48-6.49-6.82-7.32-8.19-14.55-16.45-21.88-24.63-3.84-4.28-7.71-8.55-11.74-12.65-6.9-7.03-14.81-12.68-23.72-16.92-11.35-5.4-22.87-10.35-35.17-13.2-2.54-.59-5.13-.98-7.7-1.44-5.47-.99-10.94-1.96-16.71-2.99-1.43,2.25-2.85,4.61-4.4,6.88-1.13,1.65-1.02,3.25-.18,4.92,2.12,4.23,4.74,8.11,7.96,11.6,4.5,4.9,8.27,10.32,11.46,16.17,4.26,7.82,6.46,16.22,6.53,25.04,.04,5.41-1.25,10.74-3.64,15.67-1.51,3.12-3.86,4.28-6.74,3.73-1.99-.38-3.07-2.45-1.83-3.91,5.58-6.58,5.73-14.29,4.74-22.23-.92-7.38-3.51-14.19-7.59-20.41-2.2-3.35-4.42-6.69-6.64-10.03-3.2-4.82-5.85-9.9-7.31-15.55-.13-.49-.43-.92-.76-1.61-1.33,.43-2.62,.87-3.92,1.27-1.87,.57-3.77,.65-5.68,.17-1.67-.43-2.63-2.28-1.68-3.66,.97-1.4,2.1-2.95,3.53-3.71,3.52-1.88,6.36-4.18,7.81-8.03,1.7-4.54,2-9.16,1.1-13.88-.56-2.93-1.47-5.75-3.09-8.28-2.44-3.81-5.13-4.81-9.35-3.08-2.4,.98-4.73,2.27-6.83,3.79-3.73,2.69-5.9,6.33-5.71,11.13,.05,1.38-.06,2.76-.17,4.14-.05,.6-1.29,1.03-1.72,.58-.7-.73-1.57-1.49-1.85-2.4-.66-2.15-1.01-4.4-1.59-7.08-1.04-1.34-2.73-2.42-4.89-2.84-6.16-1.18-12.3-2.45-18.59-2.78-2.82-.15-5.57,.1-8.27,.91-4.34,1.3-8.68,2.61-13.03,3.86-1.16,.33-2.36,.69-3.55,.7-2.3,.03-3.95-1.98-3.43-4.23,.3-1.31,1.06-2.51,1.65-3.83-.52-.14-1.01-.39-1.5-.39-12.36,.06-23.74,3.33-33.86,10.55-1.4,1-2.67,2.25-3.73,3.6-4.54,5.76-8.66,11.81-12.28,18.19-.86,1.51-1.54,3.13-2.18,4.74-2.33,5.83-4.73,11.63-6.86,17.52-1.69,4.69-4.76,7.88-9.04,10.36-4.85,2.81-9.95,5.01-15.09,7.19-.78,.33-1.52,.78-2.76,1.42,2.4,1.44,4.7,1.99,6.83,2.88,2.25,.93,4.54,1.76,6.86,2.52,1.65,.54,3.42,.75,5.05,1.35,4.89,1.79,6.26,7.21,2.6,10.94-1.54,1.57-3.63,2.7-5.64,3.66-2.5,1.2-5.17,2.03-8.13,3.15,.49,.79,.8,1.55,1.33,2.12,2.17,2.34,4.75,4.08,7.85,4.97,.5,.14,1.01,.29,1.49,.5,6.68,2.87,12.93,1.65,18.97-1.91,1.11-.65,2.04-2.11,3.65-1.33,1.01,.49,.3,2.32-1.68,4.37-2.72,2.81-5.93,4.85-9.62,6.11-1.48,.51-2.98,.94-4.43,1.4-.27,1.19,.58,1.61,1.27,2.05,4.29,2.67,8.44,5.64,12.94,7.89,5.74,2.87,11.65,5.54,18.36,5.37,2.61-.07,5.23,.12,7.84,.2,.52,.01,1.05,0,1.57,.03,.88,.06,1.74,.2,2.1,1.18,.29,.79-.41,1.68-1.75,2.23-.64,.27-1.29,.55-1.97,.7-4.08,.92-8.14,1.92-12.26,2.64-3.12,.54-6.24,.11-9.34-.61-1.1-.26-2.29-.12-3.84-.17,.49,1.52,.68,2.75,1.26,3.75,1.13,1.96,2.37,3.87,3.75,5.65,2.77,3.58,5.67,7.07,8.52,10.59,.88,1.09,1.7,2.18,3.36,2.16,1.22-.01,1.7,1.08,2.23,1.97,1.43,2.41,3.17,4.51,5.77,6.43,.33-1.17,.61-1.95,.77-2.75,.28-1.36,1.17-2.07,2.42-2.47,1.95-.62,3.69,.05,4.15,1.97,2.24,9.38,7.24,17.26,13.08,24.72,.53,.68,.96,1.46,1.32,2.24,.57,1.24,.3,2.38-.63,3.36-.31,.32-.67,.56-1.06,.75,.51,1.24,1.06,2.46,1.64,3.66,.49,.02,.97,.19,1.39,.5,1.11,.81,2.23,1.72,3.05,2.81,2.7,3.63,5.4,7.27,7.83,11.08,.99,1.55,2.05,3.01,3.16,4.43,2.86,2.14,5.97,4.01,9.35,5.52,1.94,.87,3.74,1.8,5.46,2.76,.22-1.9,2.22-3.48,4.13-2.83,.96,.33,1.93,.88,2.65,1.59,1.24,1.21,2.41,2.53,3.41,3.94,4.61,6.5,10.51,11.6,17.11,15.96,3.05,2.02,6.13,4,9.17,6.04,2.29,1.54,4.57,3.1,6.75,4.78,1.62,.88,3.26,1.76,4.92,2.66,1.01,.55,2.01,1.13,2.99,1.73-.14-1.55-.27-2.92-.36-4.29-.21-3.12-.39-6.25-.54-9.37-.13-2.61-.14-5.23-.34-7.83-.27-3.53,.26-6.95,1-10.37,.11-.49,.31-1.03,.64-1.4,.31-.34,.87-.7,1.28-.65,.41,.04,1.09,.56,1.1,.89,.17,7.44,3.18,14.25,4.63,21.4,.94,4.61,1.61,9.26,2.38,13.9,1.8,10.83,4.31,21.51,6.49,32.25,1.39,6.82,2.32,13.74,3.22,20.65,.85,6.56,1.39,13.16,2.06,19.74,.87,8.6-.04,17.04-2.24,25.38-2.41,9.16-6.77,17.14-13.93,23.47-3.3,2.92-5.94,6.35-8.11,10.17-1.44,2.53-1.81,5.24-1.48,8.08,.21,1.76,.93,2.48,2.64,2.68,.52,.06,1.05,.1,1.57,.08,10.79-.43,21.58-.65,32.24-2.79,5.49-1.1,10.28-3.31,14.31-7.1,4.95-4.65,9.83-9.39,14.63-14.19,4.88-4.88,8.27-10.75,10.97-17.05,3.52-8.22,5.85-16.78,7.31-25.57,1.35-8.07,2.51-16.18,3.74-24.27,.13-.86,.21-1.73,.27-2.6,1.19-16.34,2.59-32.68,2.7-49.07,.07-10.11,1.45-20.15,1.45-30.26,0-.79,.39-1.58,.59-2.37,.35-.03,.7-.07,1.05-.1,.32,.94,.78,1.86,.94,2.83,1.25,7.38,2.47,14.77,3.65,22.17,.16,1.02,.12,2.09,.11,3.13-.03,10.28-.08,20.56-.11,30.84,0,1.21,.08,2.42,.11,3.45,11.42,5.79,23.39,6.59,35.48,5.53,1.09-1.31,.66-2.52,.51-3.7-1.09-8.81-2.45-17.6-3.2-26.45-.66-7.79-1.14-15.62-.11-23.46,.81-6.22,1.14-12.49,1.93-18.72,1.01-7.98,2.98-15.74,6.02-23.21,.37-.91,.96-1.73,1.94-3.48,.17,1.79,.35,2.58,.31,3.35-.22,3.65-.53,7.3-.74,10.95-.18,3.12-.28,6.25-.4,9.38-.04,1.04,.02,2.09-.06,3.13-.39,5.39-.82,10.77-1.22,16.16-.87,11.53-.01,22.98,1.79,34.37,.76,4.82,1.4,9.65,2.13,14.48,1.97,13.1,4.71,26.04,8.39,38.77,2.03,7.03,4.22,14.02,6.24,21.05,.96,3.35,1.66,6.76,2.55,10.13,1,3.79,.06,7.23-1.71,10.56-2.02,3.8-5.09,6.58-8.57,9-2.98,2.07-6.47,3.36-9,6.16-.75,.84-2.15,1.1-3.25,1.62-1.25,.59-2.5,1.18-4.02,1.89,.33,1.07,.43,2.14,.95,2.91,2,2.98,4.76,4.99,8.17,6.23,4.63,1.68,9.45,2.54,14.27,3.11,8.33,.98,16.71,1.03,24.98-.74,3.22-.69,6.45-1.57,9.5-2.79,5.18-2.07,10.26-4.39,15.31-6.75,6.78-3.18,11.4-8.52,14.34-15.27,1.32-3.02,2.23-6.23,3.17-9.41,3.5-11.9,7.9-23.42,13.34-34.59,5.12-10.52,10.85-20.65,16.99-30.59,2.92-4.72,5.22-9.86,7.4-14.98,6.93-16.34,10.89-33.42,12.35-51.1,.41-5.03,1.14-10.07,1.14-15.1,0-9.93-.32-19.86-.73-29.78ZM80.13,108.16c-1.4,3.41-5.13,5.29-8.46,4.47-3.33-.82-5.67-4.15-5.5-8.73,.2-2.92,2-5.66,5.48-7.27,2.72-1.26,7.15-.44,8.16,3.93,.31,1.35,.76,2.7,.84,4.07,.07,1.17-.06,2.45-.5,3.52Zm91.43,42.21c1.4-.71,3.05-.39,4.27,.91,.78,.83,1.42,1.8,2.34,2.97,.92-1.31,1.71-2.23,2.29-3.27,1.85-3.35,3.62-6.76,5.44-10.13,1.07-1.99,2.15-3.99,3.3-5.94,.43-.73,1.01-1.45,2.08-1.3,1.21,1,.6,2.22,.31,3.33-.91,3.54-1.8,7.09-2.89,10.58-1.19,3.82-2.47,7.62-3.91,11.35-1.4,3.61-3.6,6.8-6.23,9.59-2.49,2.64-6.21,1.88-7.73-1.42-.43-.93-.69-1.99-.79-3.01-.31-3.28-.54-6.58-.74-9.87-.1-1.74,.73-3.02,2.26-3.8Zm-37.82,79.06c-.08,1.01-.53,2.03-.98,2.96-1.22,2.5-3.25,3.54-6.01,3.03-1.01-.18-2.01-.58-2.93-1.03-1.4-.69-2.74-1.52-4.48-2.51-.59,.61-.95,.96-1.29,1.33-.47,.51-.88,1.1-1.42,1.51-1.54,1.17-3.4,1.02-4.7-.45-.68-.77-1.22-1.69-1.66-2.63-1.19-2.52-2.33-5.07-3.43-7.63-.55-1.28-1.09-2.58-1.45-3.92-.5-1.86,.12-3.47,1.58-4.67,1.61-1.33,3.46-1.72,5.35-.7,1.05,.57,1.99,1.39,2.9,2.18,3.43,2.95,6.83,5.95,10.26,8.91,.64,.55,1.29,1.2,2.66,.76,.85-1.77,1.78-3.8,2.79-5.8,.95-1.87,1.95-3.72,3.86-4.82,.84-.49,1.65-.45,2.42,.66-2.01,3.93-3.11,8.27-3.46,12.81Zm6.4-50.28c-.95,.43-1.95,.8-2.96,1-2.61,.53-4.35-.29-5.66-2.6-.68-1.21-1.3-2.47-1.88-3.73-.55-1.19-.57-2.36,.47-3.36,1.07-1.03,2.54-1.2,3.8-.28,1.1,.8,2.09,1.75,3.25,2.74,1.39-.59,2.73-.99,3.89-1.69,4.93-2.96,9.85-5.92,15.14-8.21,2.44-1.06,4.44-2.78,5.89-5.03,1.03-1.61,1.83-3.36,2.78-5.02,.57-.99,1.21-1.94,1.82-2.91,1.19,2.83,.32,5.09-.35,7.37-1.22,4.14-3.55,7.58-6.98,10.17-5.99,4.52-12.37,8.43-19.22,11.54Zm76.61-15.41c-.83,7.12-1.97,14.31-6.03,20.35-5.04,7.51-10.64,14.63-16.07,21.87-1.63,2.17-3.82,2.92-6.47,1.72-.75-.34-1.56-.53-2.46-.82-.86,1.37-1.61,2.52-2.31,3.7-3.08,5.13-7,9.54-11.56,13.38-2.82,2.37-5.9,4.28-9.42,5.48-3.36,1.15-6.21,.42-8.51-2.19-1.84-2.09-3.5-4.33-5.21-6.53-.31-.4-.58-.89-.71-1.38-.34-1.25-.15-2.43,.84-3.35,1-.93,2.26-1.13,3.39-.54,1.05,.54,1.95,1.42,2.83,2.24,1.38,1.28,2.28,3.1,4.44,3.95,1.1-.46,2.42-.89,3.61-1.56,1.35-.77,2.66-1.66,3.86-2.66,4.72-3.95,8.72-8.49,11.52-14.03,.78-1.55,1.63-3.1,2.7-4.45,1.97-2.48,4.03-2.86,6.93-1.55,1.06,.48,2.1,1.03,3.03,1.49,6.16-5.85,16.17-19.47,18.37-24.35,2.29-5.08,4.57-10.18,4.52-15.94,0-.78,.34-1.57,.53-2.36,1.99,2.42,2.49,4.97,2.18,7.56Z"/>
  <path class="cls-3" d="M298.76,414.89c3.31-5.05,3.59-5.31,8.7-7.65,2.85-1.3,5.7-2.6,8.59-3.83,3.61-1.54,6.5-4.03,9.08-6.89,2.1-2.32,3.1-4.98,2.18-8.17-.77-2.67-1.35-5.41-2.15-8.07-4.35-14.52-8.53-29.08-11.5-43.96-.2-.99-.58-1.95-.96-3.2-11.64,2.62-22.94,2.15-33.83-2.21-.89,.54-.84,1.22-.54,1.87,4.46,9.63,8.46,19.46,15.44,27.75,3.34,3.97,5.85,8.65,8.61,13.08,2.64,4.24,3.82,8.94,3.92,13.91,.04,1.92,0,3.83,0,5.75,0,4.24-1.6,7.76-4.68,10.68-1.76,1.68-3.44,3.46-5,5.33-1.74,2.09-1.59,2.96,.5,4.81,.37,.33,.91,.45,1.65,.8Z"/>
  <path class="cls-3" d="M56.61,34.03c3.01-1.9,5.83-3.59,8.54-5.44,3.14-2.14,3.85-5.26,1.98-8.61-.66-1.19-1.46-2.45-2.52-3.26-2.61-1.99-5.34-3.86-8.16-5.54-2.05-1.22-3.7-.72-4.86,1.3-2.19,3.83-3.23,8.01-3.37,12.41-.05,1.47,.67,2.67,1.61,3.73,1.84,2.09,3.82,4.01,6.78,5.41Z"/>
  <path class="cls-2" d="M214.57,156.17c-.19,.79-.54,1.57-.53,2.36,.05,5.76-2.23,10.86-4.52,15.94-2.2,4.88-12.2,18.5-18.36,24.35-.93-.46-1.97-1.01-3.03-1.49-2.9-1.31-4.96-.93-6.93,1.55-1.07,1.35-1.92,2.9-2.7,4.45-2.8,5.54-6.8,10.08-11.52,14.03-1.19,1-2.5,1.89-3.86,2.66-1.19,.67-2.51,1.1-3.61,1.56-2.16-.85-3.06-2.67-4.44-3.95-.88-.82-1.78-1.7-2.83-2.24-1.13-.59-2.39-.39-3.39,.54-.99,.92-1.18,2.1-.84,3.35,.13,.49,.39,.98,.71,1.38,1.71,2.2,3.37,4.44,5.21,6.53,2.3,2.61,5.15,3.34,8.51,2.19,3.52-1.2,6.61-3.11,9.42-5.48,4.57-3.84,8.48-8.25,11.56-13.38,.71-1.18,1.46-2.34,2.31-3.7,.9,.3,1.72,.48,2.46,.82,2.64,1.2,4.83,.46,6.47-1.72,5.43-7.23,11.04-14.36,16.07-21.87,4.05-6.04,5.2-13.22,6.03-20.35,.3-2.59-.2-5.13-2.18-7.56Z"/>
  <path class="cls-2" d="M119.33,231.87c1.74,.99,3.08,1.82,4.48,2.51,.93,.46,1.93,.85,2.93,1.03,2.76,.51,4.79-.53,6.01-3.03,.45-.93,.9-1.95,.98-2.96,.36-4.55,1.45-8.89,3.46-12.81-.78-1.12-1.58-1.15-2.42-.66-1.91,1.1-2.92,2.96-3.86,4.82-1.01,1.99-1.94,4.02-2.79,5.8-1.37,.44-2.02-.21-2.66-.76-3.43-2.96-6.82-5.96-10.26-8.91-.92-.79-1.85-1.61-2.9-2.18-1.89-1.02-3.74-.63-5.35,.7-1.46,1.21-2.08,2.82-1.58,4.67,.36,1.34,.9,2.64,1.45,3.92,1.1,2.56,2.24,5.11,3.43,7.63,.44,.93,.99,1.86,1.66,2.63,1.29,1.47,3.16,1.62,4.7,.45,.54-.41,.95-1.01,1.42-1.51,.34-.37,.7-.72,1.29-1.33Z"/>
  <path class="cls-2" d="M191.26,133.6c-1.07-.15-1.65,.57-2.08,1.31-1.15,1.95-2.22,3.94-3.3,5.94-1.82,3.37-3.58,6.78-5.43,10.13-.57,1.04-1.36,1.96-2.29,3.27-.92-1.18-1.56-2.14-2.34-2.97-1.22-1.3-2.87-1.62-4.27-.91-1.53,.78-2.37,2.06-2.26,3.8,.2,3.29,.43,6.59,.74,9.87,.1,1.02,.36,2.08,.79,3.01,1.51,3.3,5.24,4.06,7.73,1.42,2.63-2.8,4.84-5.99,6.23-9.59,1.44-3.73,2.72-7.53,3.91-11.35,1.08-3.49,1.98-7.04,2.89-10.58,.29-1.11,.9-2.33-.31-3.33Z"/>
  <path class="cls-2" d="M166.69,150.06c-.61,.97-1.26,1.92-1.82,2.91-.95,1.66-1.75,3.41-2.78,5.02-1.44,2.24-3.45,3.97-5.89,5.03-5.29,2.29-10.21,5.25-15.14,8.21-1.16,.7-2.5,1.1-3.89,1.69-1.16-.98-2.15-1.93-3.25-2.74-1.27-.93-2.74-.76-3.8,.28-1.03,1-1.01,2.17-.47,3.36,.58,1.27,1.19,2.52,1.88,3.73,1.3,2.31,3.05,3.13,5.66,2.6,1.01-.21,2.01-.57,2.96-1,6.85-3.11,13.23-7.01,19.22-11.54,3.43-2.59,5.75-6.04,6.98-10.17,.67-2.28,1.54-4.54,.35-7.37Z"/>
  <path class="cls-2" d="M127.56,257.48c-1.03-.9-1.61-1.49-2.27-1.98-5.25-3.86-9.54-8.59-13.05-14.09-2.43-3.81-5.13-7.45-7.83-11.08-.81-1.09-1.93-2-3.05-2.81-.88-.65-1.99-.7-2.94-.02-.93,.67-1.26,1.71-1.06,2.78,.16,.83,.49,1.69,.96,2.38,2.86,4.16,5.66,8.38,8.71,12.4,4.08,5.37,9.6,9.06,15.37,12.35,1.35,.77,2.84,1.36,5.14,.08Z"/>
  <path class="cls-2" d="M66.16,103.9c-.17,4.58,2.18,7.91,5.5,8.73,3.33,.82,7.06-1.07,8.46-4.47,.44-1.07,.57-2.36,.5-3.52-.08-1.37-.53-2.72-.84-4.07-1.01-4.37-5.44-5.19-8.16-3.93-3.47,1.61-5.27,4.35-5.48,7.27Z"/>
</svg>