<?xml version="1.0" encoding="UTF-8"?>
<svg id="Layer_1" data-name="Layer 1" xmlns="http://www.w3.org/2000/svg" viewBox="0 0 298.96 407.38">
  <defs>
    <style>
      .cls-1 {
        fill: #956e51;
      }

      .cls-2 {
        fill: #d6c3a5;
      }

      .cls-3 {
        fill: #664735;
      }

      .cls-4 {
        fill: #424039;
      }

      .cls-5 {
        fill: #e0c5a2;
      }

      .cls-6 {
        fill: #23130c;
      }

      .cls-7 {
        fill: #f47d41;
      }

      .cls-8 {
        fill: #f7e5b5;
      }
    </style>
  </defs>
  <path class="cls-6" d="M191.88,380.91c-.21,.36-.55,.65-.85,.94-2.12,2-5.34,1.54-6.29-1.14-.69-1.94-1.18-4.17-.95-6.19,.74-6.56,1.81-13.1,6.91-18.04,.3-.29,.55-.65,.76-1.02,.59-1.03,.51-2.11-.27-2.94-.72-.76-1.63-1.34-2.5-1.95-6.35-4.48-11.27-10.27-15.23-16.9-2.18-3.64-4.22-7.37-6.42-11-.85-1.4-1.97-2.63-2.93-3.9-4.67,1.34-8.96,2.5-13.21,3.8-4.42,1.36-9.16,1.57-13.6,3.56-.19,1.14-.5,2.16-.51,3.19-.08,5.83-1.76,11.3-3.77,16.68-1.11,2.98-2.33,5.93-3.6,8.84-2.07,4.75-1.47,6.45,3.81,7.25,11.43,1.75,18.57,12.7,20.73,21.07,.38,1.47,.25,2.99-1.09,4.07-1.4,1.12-2.78,.68-4.11-.16-1.44-.9-2.8-1.96-4.32-2.7-4.57-2.22-9.19-4.35-13.82-6.44-.69-.31-1.57-.23-2.94-.4,.87,2.03,1.61,3.5,2.15,5.04,1.41,3.99,2.95,7.95,4.05,12.03,.95,3.53,.78,7.17-.84,10.58-1.3,2.74-4.38,2.94-6.08,.38-.58-.87-1.05-1.86-1.37-2.85-2.37-7.33-6.12-13.98-10.11-20.51-.63-1.04-1.45-1.97-2.21-2.99-3.84,.76-6.4,2.92-8.54,5.61-2.65,3.31-5.14,6.75-7.74,10.1-2.46,3.17-4.82,3.13-7.08-.14-.72-1.04-1.34-2.18-1.8-3.35-1.5-3.85-1.64-7.74-.79-11.85,2.12-10.26,7.46-17.4,17.96-20.07,1.18-.3,2.28-.91,3.36-1.35,.43-3.2-.5-5.83-1.77-8.24-4.59-8.68-8.38-17.62-10.09-27.35-.27-1.55-1.2-2.67-2.82-3.04-.23,.07-.45,.09-.63,.19-2.4,1.36-4.78,2.76-7.19,4.1-17.35,9.62-36.09,14.64-55.72,16.52-1.85,.18-3.78-.23-5.64-.58-1.78-.34-3.04-1.52-3.59-3.27-.63-2-1.14-4.05-1.73-6.2,2.13-3.51,4.19-6.96,6.31-10.38,2.45-3.97,4.99-7.89,7.41-11.88,.77-1.27,1.31-2.7,.25-4.12-.2-.13-.36-.33-.55-.35-1.67-.25-3.35-.42-5.01-.72-8.41-1.49-16.62-3.56-23.57-8.89-1.17-.9-2.32-1.88-3.24-3.02-1.44-1.77-1.43-4.22,.24-5.8,1.67-1.58,3.55-3.08,5.58-4.13,3.95-2.04,8.09-3.72,12.14-5.59,4.04-1.87,8.18-3.57,12.05-5.73,5.95-3.32,12.11-6.12,18.49-8.5,2.76-1.03,5.43-2.3,8.14-3.46,1.16-2.96,2.44-5.87,3.45-8.87,5.88-17.49,11.37-35.11,17.9-52.39,5.83-15.45,13.98-29.53,24.18-42.4,8.1-10.22,17.42-19.16,29.52-24.68,.55-.25,.98-.77,1.66-1.32-.06-2.88-.51-5.77-1.16-8.66-1.73-7.7-2.56-15.52-2.07-23.39,.79-12.51,2.5-24.89,6.05-36.98,5.21-17.71,13.07-33.64,29.02-44.28,.18-.12,.33-.27,.5-.4,8.53-6.61,17.95-11.26,28.68-13.01,16.85-2.75,33.42-1.11,49.74,3.47,5.96,1.67,11.54,4.36,16.29,8.43,5.81,4.99,11.15,10.43,15.23,17.01,9.85,15.88,16.73,32.87,19.41,51.44,.79,5.46,1.49,10.93,2.08,16.41,1.82,16.77,.12,33.48-1.1,50.19-.02,.21-.09,.41-.13,.62-1.82,9.37-3.56,18.75-5.47,28.1-2.52,12.33-6.41,24.2-12.31,35.35-4.17,7.87-8.44,15.7-12.79,23.47-4.89,8.72-10.38,17.07-17.15,24.45-7.57,8.26-14.71,16.88-23.58,23.97-5.99,4.79-12.19,9.16-18.57,13.36-1.21,.8-2.33,1.74-3.51,2.63,.14,1.26,.17,2.32,.39,3.35,1.49,7.05,2.95,14.11,4.55,21.14,1.7,7.49,2.09,15.11,2.68,22.72,.11,1.39,.46,2.77,.73,4.39,1.63-.12,2.89-.14,4.12-.32,2.82-.41,5.52,.13,8.11,1.11,11.35,4.28,17.73,12.65,19.84,24.44,.18,1.01,.16,2.12-.03,3.13-.39,2.01-2.93,2.99-4.5,1.7-1.13-.92-2.07-2.1-2.99-3.24-2.67-3.33-5.63-6.35-9.14-8.8-.6-.42-1.37-.59-2.03-.86-.85,1.56,.19,2.29,.58,3.18,1.19,2.71,2.5,5.38,3.56,8.14,1.3,3.37,.79,6.69-.84,9.85-.98,1.9-2,3.93-4.57,3.83-2.23-.09-3.06-1.95-4.06-3.6-2.53-4.17-5.06-8.33-7.79-12.37-1.77-2.62-3.79-5.1-6.79-6.95-5.61,2.33-10.56,4.72-13.5,9.84Zm96.06-252.06c-5.37,8.1-12.52,14.4-20.61,19.56-7.11,4.54-14.79,4.76-22.49,1.21-1.73-.8-3.45-1.65-5.09-2.63-7.99-4.81-16.09-9.47-23.89-14.57-12.53-8.2-22.12-18.98-28.15-32.87-4.97-11.46-6.58-23.15-3.79-35.41,1.18-5.19,2.44-10.35,4.74-15.15,4.33-9.04,10.87-15.71,21-17.92,10.44-2.29,20.22-.83,28.97,5.73,2.02,1.51,4,3.15,6.96,3.6,1.43-3.93,2.62-7.95,4.35-11.74,1.8-3.95,5.24-6.59,8.58-8.95,.4-2.81-1.09-4.15-3.18-5.04-5.66-2.42-11.36-4.84-17.45-5.91-12.16-2.13-24.37-3.13-36.73-1.6-11.05,1.37-20.88,5.38-29.54,12.33-2.15,1.73-4.26,3.51-6.4,5.24-7.46,6.03-12.5,13.75-15.91,22.64-4.73,12.33-8.39,24.91-9.38,38.17-.39,5.28-1.16,10.55-1.29,15.84-.16,6.14,.3,12.26,2.17,18.22,.75,2.37,.83,4.95,1.27,7.77,1.21-.16,2.2-.28,3.19-.43,6.86-1.09,13.54-.73,19.84,2.55,4.32,2.25,8.81,4.24,12.94,6.8,8.42,5.23,14.2,12.72,16.93,22.25,1.54,5.37,4,10.26,6.56,15.14,.29,.55,.73,1.02,1.01,1.39,2.45-.38,2.23-2.62,3.35-3.77,.76-.79,1.64-1.64,2.71-1.14,.86,.41,1.83,1.28,2.09,2.14,.47,1.6,.47,3.33,.63,5.01,.35,3.59,.52,7.2,1.07,10.75,.32,2.06,1.08,4.09,1.92,6.02,.83,1.89,2.56,2.15,4.21,1.02,1.83-1.26,3.02-3,3.67-5.05,.7-2.22,1.17-4.51,1.82-6.75,.47-1.62,.89-3.31,1.72-4.75,.44-.76,1.72-1.47,2.58-1.42,.85,.05,2.09,.93,2.36,1.71,.53,1.55,.63,3.29,.71,4.97,.3,6.35,.42,12.72,.79,19.06,.29,5.06,1.14,7.31,3.65,11.24,1.34,.31,1.83-.76,2.38-1.59,4.63-6.98,7.57-14.69,9.54-22.78,.65-2.67,1.08-5.4,1.63-8.1,.21-1.04,.36-2.1,.71-3.09,.51-1.45,1.34-2.67,3.1-2.78,1.7-.1,2.86,.75,3.52,2.22,.6,1.35,1.06,2.77,1.49,4.19,.99,3.25,1.8,6.55,2.9,9.76,.9,2.6,1.96,5.17,3.24,7.59,1.25,2.37,3.55,2.98,6,1.88,1.97-.88,3.6-2.15,4.66-4.15,2.89-5.43,5.91-10.79,8.77-16.23,.68-1.29,1.04-2.78,1.35-4.22,1.84-8.49,3.9-16.96,5.36-25.52,1.63-9.57,2.53-19.25,2.54-29.95-2.04,3.02-3.57,5.25-5.06,7.5ZM103.01,324.23c3.82,9.2,7.66,18.4,11.35,27.65,1.02,2.54,1.59,5.27,2.3,7.93,.29,1.08,.68,2.05,1.88,2.27,1.33,.24,3.15-.85,3.61-2.06,.15-.39,.23-.82,.35-1.22,1.1-3.65,2-7.37,3.35-10.92,3.48-9.16,6.07-18.52,7.1-28.29,.04-.42,.13-.84,.23-1.25,.4-1.67,1.83-2.77,3.26-1.98,2.29,1.26,4.37,.92,6.71,.33,26.02-6.52,49.68-18.13,72.14-32.6,8.36-5.39,14.81-12.61,21.58-19.61,10.68-11.05,19.59-23.41,26.87-36.93,3.82-7.09,7.63-14.19,11.4-21.31,.67-1.26,1.08-2.66,1.58-3.93-1.27-1.04-1.67,.07-2.26,.45-.53,.34-.94,.86-1.45,1.24-5.42,3.93-9.81,3.11-13.26-2.67-1.29-2.17-2.13-4.61-3.09-6.96-.62-1.5-1.1-3.06-1.99-5.56-.86,2.51-1.47,4.05-1.92,5.63-1.88,6.56-4.43,12.83-7.91,18.7-1.18,2-2.47,3.98-4.02,5.71-3.08,3.43-6.95,3.32-9.71-.44-1.47-2-2.62-4.4-3.28-6.8-.96-3.45-1.34-7.06-1.97-10.61-.15-.82-.29-1.64-.52-2.98-1.48,.9-2.71,1.55-3.84,2.35-4.64,3.29-10.16,1.73-12.75-3.56-.92-1.88-1.51-3.96-1.98-6.02-.57-2.47-.86-5-1.33-7.87-1.24-.32-2.66-.56-3.99-1.07-1.16-.44-2.2-1.17-3.47-1.87-.27,.7-.64,1.23-.65,1.76-.41,14.3-5.08,27.45-10.97,40.23-3.83,8.31-8.42,16.18-14.59,23.03-.71,.79-1.36,1.64-1.91,2.54-6.55,10.76-15.23,19.83-23.4,29.29-5.14,5.95-10.68,11.45-16.89,16.34-8.83,6.96-17.42,14.21-26.86,20.37-.86,.56-1.57,1.35-2.34,2.03,.29,3.23,1.53,5.91,2.66,8.64ZM250.79,38.53c-.91,2.55-1.42,4.81,.44,7.15,.7,.88,.63,2.19-.42,2.8-.81,.47-2.15,.85-2.89,.5-3.63-1.73-7.2-3.63-10.69-5.63-5.68-3.24-11.8-4.62-18.27-4.73-10.81-.18-21.11,5.49-24.89,17.11-3.15,9.67-3.95,19.4-.92,29.38,2.68,8.82,6.5,17.03,11.66,24.62,3.23,4.75,6.75,9.26,11.29,12.87,9.49,7.54,19.51,14.26,30.4,19.63,6,2.96,12.06,2.83,17.57-.87,11.22-7.53,21.04-16.48,26.91-29.04,1.65-3.52,2.64-6.99,1.99-11.03-1.04-6.48-1.4-13.07-2.4-19.56-.77-5.01-1.75-10.05-3.24-14.89-2.62-8.51-5.59-16.91-8.61-25.29-2.11-5.84-5.15-11.18-9.94-15.32-.79-.68-1.7-1.21-2.79-1.98-6.97,2.78-12.54,6.85-15.19,14.27Zm-84.43,183.78c2.14-2.05,4.52-3.97,6.19-6.37,4.24-6.08,8.18-12.37,12.17-18.63,.67-1.05,1.27-2.3,1.4-3.52,.74-6.93,2.51-13.77,1.6-20.86-.67-5.25-.96-10.54-1.42-15.82-.29-3.31-1.79-6.05-3.91-8.52-2.79-3.26-5.98-6.09-9.85-7.93-5.54-2.64-11.12-5.26-16.87-7.38-7.32-2.71-14.45-1.93-21.45,1.83-12.5,6.73-21.58,16.94-29.69,28.22-.6,.83-1.1,1.88-1.22,2.88-1.24,10.73-2.41,21.48-3.56,32.22-.09,.83,0,1.69,.08,2.53,.14,1.38,1.59,2.19,2.82,1.53,.93-.49,1.81-1.09,2.66-1.71,9.03-6.5,16.65-14.41,23.32-23.29,1.27-1.69,2.59-3.35,4.08-4.83,.45-.45,1.69-.52,2.33-.23,.61,.28,1.32,1.28,1.27,1.92-.13,1.88-.52,3.77-.98,5.61-3.33,13.37-6.72,26.72-10.05,40.09-.5,2.01-1.29,4.09,.41,6.42,.86-.24,1.9-.36,2.75-.81,3.23-1.7,5.93-4.11,8.26-6.89,4.36-5.19,8.63-10.47,12.95-15.7,2.84-3.43,5.71-6.83,8.58-10.24,.55-.65,1.14-1.26,1.73-1.86,1.1-1.11,2.35-1.86,3.98-1.29,1.37,.49,1.93,1.96,1.65,4.37-1,8.63-2.06,17.26-3.01,25.89-.15,1.38,.11,2.8,.21,4.89,1.58-1.11,2.69-1.71,3.56-2.55Zm-11.69-17.49c-3.14,4.01-6.17,8.11-9.4,12.04-4.31,5.26-8.87,10.28-14.79,13.88-1,.61-1.96,1.73-2.35,2.82-4.18,11.58-8.13,23.24-9.55,35.57-.04,.38,.19,.8,.4,1.63,1.89,.57,3.88,.59,5.78-.61,1.61-1.02,3.26-2.02,4.7-3.26,5.16-4.42,10.19-8.98,14.33-14.43,5.39-7.08,10.84-14.12,16.44-21.39-3.5-4.81-2.73-10.03-1.95-15.3,.78-5.23,1.34-10.49,1.98-15.74,.02-.14-.21-.31-.5-.69-2.25,1.31-3.56,3.53-5.1,5.49Zm-34.17,16.18c.24-2.09,.69-4.17,1.22-6.21,2.28-8.8,4.63-17.59,6.94-26.38,.2-.78,.27-1.59,.57-3.46-2.7,2.83-4.66,4.94-6.68,6.99-2.08,2.11-4.17,4.21-6.35,6.21-2.02,1.86-4.12,3.65-6.28,5.35-2.32,1.83-4.76,3.52-7.26,5.35-1.69,3.58-2.07,7.62-2.77,11.55-1.33,7.49-2.53,15.01-3.66,22.53-.54,3.61,.14,7.18,.99,10.68,.18,.75,.86,1.38,1.26,2,2.75-.25,4.42-1.99,6.1-3.54,7.15-6.59,15.16-13.77,18.05-19.97-2.53-5.07-2.75-5.91-2.14-11.12Zm69.82,85.89c-3.22,1.62-6.42,3.27-9.67,4.81-3.03,1.44-6.13,2.76-8.82,3.96-.78,1.65,0,2.49,.48,3.39,1.4,2.61,2.71,5.26,4.2,7.82,5.79,9.92,12.19,19.34,21.69,26.06q3.51-1.76,8.06-1.19c-.27-16.56-5.5-32.44-5.95-49.96-4.01,2.05-7,3.59-10,5.1Zm-105.29-17.31c-1,2.73-1.88,5.57-1.9,8.95,3.11,.27,5.48-1.17,7.85-2.31,9.32-4.49,16.6-11.57,23.8-18.51-.69-2.87-1.64-5.28-1.75-7.73-.1-2.49,.57-5.03,1.02-7.53,.45-2.5,1.01-4.98,1.56-7.46,.5-2.25,1.03-4.49,1.56-6.78-1.61-.54-1.87,.75-2.49,1.37-2.56,2.53-5.01,5.19-7.66,7.61-3.01,2.75-6.3,5.11-11.45,4.54-3.66,9.65-7.19,18.72-10.53,27.85Zm-48.34,9.49c.34-.43,.8-.87,1.1-1.41,5.14-9.26,10.27-18.52,15.37-27.8,.68-1.23,1.21-2.54,1.77-3.74-1.34-1.11-2.34-.47-3.23-.04-3.22,1.6-6.5,3.13-9.57,4.98-7.29,4.41-15.05,7.74-22.96,10.82-2.96,1.15-5.88,2.42-8.75,3.78-1.29,.61-2.4,1.58-4.23,2.81,9.12,8.12,19.82,8.78,30.49,10.59Zm32.45-37.14c-1.49,7.02-2.99,14.03-4.45,21.06-.29,1.42-.89,3.12,.64,4.07,1.68,1.04,3.24,.03,4.57-1.08,1.14-.94,2.26-1.91,3.29-2.97,6.67-6.84,12.43-14.36,17.16-22.67,.87-1.52,1.52-3.05,.99-4.8-1.5-4.9-1.07-9.99-1.42-14.94-1.11-.66-1.52,.23-2.08,.76-1.99,1.88-3.88,3.89-6,5.61-2.28,1.84-4.85,2.51-7.63,.82-.43-.26-1.13-.07-2.03-.1-1.02,4.8-2.04,9.52-3.04,14.25Zm23.54-78.91c-4.75,9-8.39,18.48-11.61,28.12-1.95,5.81-3.59,11.74-5.7,17.49-1.79,4.88-.61,9.03,2.18,13.41,1.05-.46,2.17-.65,2.83-1.29,6.8-6.64,11.8-14.34,13.77-23.79,.39-1.86,.98-3.69,1.23-5.57,.19-1.43,.34-3.05-.13-4.35-1.12-3.11-1.01-6.25-.79-9.41,.44-6.31,1-12.6,1.53-19.15-1.9,1.11-2.47,2.96-3.31,4.55Zm40.44,88.25c-3.84,3.04-7.75,5.96-12.83,6.6-1.6,.2-2.66,1.21-3.6,2.4-1.57,2-3.17,3.98-4.74,5.98-4.65,5.92-10.24,10.79-16.94,14.19-4.15,2.11-5.32,5.75-6.24,9.71-.31,1.34,.92,2.38,2.38,2.17,3.01-.45,5.66-1.73,8.06-3.55,9.1-6.94,18.2-13.89,27.28-20.85,1.34-1.03,2.62-2.16,3.89-3.28,6.69-5.93,8.15-8.56,10.45-19.65-3.15,2.58-5.41,4.46-7.71,6.29Zm-7.24,109.7c-.73-1.99-1.69-3.89-2.46-5.86-.77-1.98,.74-4.11,2.87-3.71,3.74,.7,7.41,1.73,11.1,2.69,1.56,.4,2.95,1.5,5.2,1.42-2.9-5.04-6.82-7.95-11.78-9.6-1.5-.5-2.81-.09-4.23,.61-3.2,1.56-8.88,1.4-12.08-.09-1.72-.81-3.43-1.64-5.15-2.46-11.09,2.81-18.21,13.76-15.73,24.8,.76-.55,1.5-.89,1.98-1.45,1.09-1.3,2.1-2.67,3.06-4.06,3.5-5.12,8.43-8.25,14.15-10.32,3.05-1.1,6.17,.21,7.01,3.43,1.38,5.3,4.89,9.29,8.12,15-.08-4.49-.99-7.46-2.06-10.38Zm65.53-9.88c5.28-1.93,9.96-4.11,14.08-6.95,3.19,.93,5.06,3.08,7.02,4.92,2.14,2.02,3.81,4.52,5.77,6.75,1.77,2.02,2.61,4.84,5.23,6.38,.53-6.14-2.1-12.79-6.26-16.03-.66-.52-1.46-.87-2.15-1.35-1.39-.97-1.99-2.24-1.47-3.1,.73-1.21,1.93-1.8,3.23-1.64,4.03,.5,7.88,1.67,11.44,3.68,1.03,.58,2.02,1.22,3.2,1.93,.28-2.02-1.04-2.56-1.95-3.25-2.7-2.05-5.48-3.99-8.23-5.96-3.44-2.46-7.38-1.23-11.11-1.47-1.98,2.07-5.36,1.58-7.15,3.31-2.67,2.58-5.2,2.32-8.47,.95-2.67,3.79-3.35,7.41-3.17,11.84Zm-113.97-73.79c.26-1.88,.66-3.74,1-5.61,.25-1.41,.51-2.82,.91-5.02-1.34,.71-2.04,.96-2.61,1.4-2,1.55-3.75,3.58-5.98,4.64-3.32,1.59-5.17,4.14-6.63,7.27-1.52,3.25-3.34,6.37-4.76,9.66-.98,2.27-1.52,4.74-2.32,7.35,.99,.23,1.66,.62,2.1,.44,7.25-2.94,14.43-6.03,20.94-10.45,.5-.34,.87-.88,1.99-2.03-4.39-1.28-5.11-4.19-4.63-7.66Zm103.14-83.98c-1,1-1.6,1.42-1.97,2-3.05,4.65-6.82,8.62-11.17,12.06-1.68,1.32-3.17,2.73-4.11,4.73-4.49,9.57-9.05,19.12-13.56,28.68-.35,.73-.55,1.54-.81,2.31,14.51-14.04,27.95-36.66,31.63-49.78Zm-121.24,82.4c.5-1.07,.8-2.57,.47-3.63-1.67-5.28-1.16-10.45,.2-15.66,.15-.59,.06-1.24,.09-2.38-.6,.65-1.04,.93-1.2,1.33-3.64,9.07-8.25,17.64-13.36,25.95-1.54,2.51-1.38,4.7,.89,6.96,5.88-2.7,10.24-6.79,12.91-12.57Zm22.1,15.39c-1.96,1.38-3.84,2.66-5.69,4-3.96,2.85-7.92,5.7-12.51,7.46-1.77,.68-3.6,1.23-5.44,1.69-3.79,.95-3.91,1-6.81,5.51,7.73-.2,25.09-6.81,32.98-12.66-.9-2.14-1.63-3.87-2.53-6Zm-30.53,11.81c-.15-2.87-.3-5.75-.46-8.72-.97-1.02-1.88-.21-2.69,.33-.68,.46-1.31,1.08-1.79,1.75-2.22,3.07-4.4,6.17-6.54,9.3-.44,.64-.62,1.46-.94,2.27,4.44,.4,7.62-.9,12.41-4.93Zm-8.2-8.15c-1.03-1.21-1.92-2.26-3.16-3.72-2.95,4.66-5.65,8.89-8.29,13.16-.13,.21,.21,.72,.41,1.35,3.86-3.36,7.52-6.75,11.04-10.79Z"/>
  <path class="cls-1" d="M293,121.36c-2.04,3.02-3.57,5.25-5.06,7.5-5.37,8.1-12.52,14.4-20.61,19.56-7.11,4.54-14.79,4.76-22.49,1.21-1.73-.8-3.45-1.65-5.09-2.63-7.99-4.81-16.09-9.47-23.89-14.57-12.53-8.2-22.12-18.98-28.15-32.87-4.97-11.46-6.58-23.15-3.79-35.41,1.18-5.19,2.44-10.35,4.74-15.15,4.33-9.04,10.87-15.71,21-17.92,10.44-2.29,20.22-.83,28.97,5.73,2.02,1.51,4,3.15,6.96,3.6,1.43-3.93,2.62-7.95,4.35-11.74,1.8-3.95,5.24-6.59,8.58-8.95,.4-2.81-1.09-4.15-3.18-5.04-5.66-2.42-11.36-4.84-17.45-5.91-12.16-2.13-24.37-3.13-36.73-1.6-11.05,1.37-20.88,5.38-29.54,12.33-2.15,1.73-4.26,3.51-6.4,5.24-7.46,6.03-12.5,13.75-15.91,22.64-4.73,12.33-8.39,24.91-9.38,38.17-.39,5.28-1.16,10.55-1.29,15.84-.16,6.14,.3,12.26,2.17,18.22,.75,2.37,.83,4.95,1.27,7.77,1.21-.16,2.2-.28,3.19-.43,6.86-1.09,13.54-.73,19.84,2.55,4.32,2.25,8.81,4.24,12.94,6.8,8.42,5.23,14.2,12.72,16.93,22.25,1.54,5.37,4,10.26,6.56,15.14,.29,.55,.73,1.02,1.01,1.39,2.45-.38,2.23-2.62,3.35-3.77,.76-.79,1.64-1.64,2.71-1.14,.86,.41,1.83,1.28,2.09,2.14,.47,1.6,.47,3.33,.63,5.01,.35,3.59,.52,7.2,1.07,10.75,.32,2.06,1.08,4.09,1.92,6.02,.83,1.89,2.56,2.15,4.21,1.02,1.83-1.26,3.02-3,3.67-5.05,.7-2.22,1.17-4.51,1.82-6.75,.47-1.62,.89-3.31,1.72-4.75,.44-.76,1.72-1.47,2.58-1.42,.85,.05,2.09,.93,2.36,1.71,.53,1.55,.63,3.29,.71,4.97,.3,6.35,.42,12.72,.79,19.06,.29,5.06,1.14,7.31,3.65,11.24,1.34,.31,1.83-.76,2.38-1.59,4.63-6.98,7.57-14.69,9.54-22.78,.65-2.67,1.08-5.4,1.63-8.1,.21-1.04,.36-2.1,.71-3.09,.51-1.45,1.34-2.67,3.1-2.78,1.7-.1,2.86,.75,3.52,2.22,.6,1.35,1.06,2.77,1.49,4.19,.99,3.25,1.8,6.55,2.9,9.76,.9,2.6,1.96,5.17,3.24,7.59,1.25,2.37,3.55,2.98,6,1.88,1.97-.88,3.6-2.15,4.66-4.15,2.89-5.43,5.91-10.79,8.77-16.23,.68-1.29,1.04-2.78,1.35-4.22,1.84-8.49,3.9-16.96,5.36-25.52,1.63-9.57,2.53-19.25,2.54-29.95Z"/>
  <path class="cls-8" d="M102.7,313.57c9.43-6.16,18.03-13.41,26.86-20.37,6.2-4.89,11.75-10.4,16.89-16.34,8.18-9.46,16.85-18.53,23.4-29.29,.55-.9,1.2-1.76,1.91-2.54,6.17-6.85,10.77-14.73,14.59-23.03,5.89-12.78,10.56-25.93,10.97-40.23,.02-.53,.38-1.05,.65-1.76,1.27,.7,2.31,1.43,3.47,1.87,1.33,.5,2.75,.75,3.99,1.07,.47,2.87,.76,5.41,1.33,7.87,.48,2.05,1.06,4.14,1.98,6.02,2.6,5.28,8.11,6.85,12.75,3.56,1.13-.8,2.36-1.45,3.84-2.35,.24,1.34,.38,2.16,.52,2.98,.63,3.54,1.01,7.16,1.97,10.61,.66,2.4,1.81,4.8,3.28,6.8,2.76,3.76,6.63,3.87,9.71,.44,1.54-1.72,2.83-3.71,4.02-5.71,3.48-5.87,6.03-12.15,7.91-18.7,.45-1.58,1.06-3.12,1.92-5.63,.89,2.5,1.37,4.06,1.99,5.56,.97,2.35,1.8,4.79,3.09,6.96,3.45,5.79,7.84,6.6,13.26,2.67,.51-.37,.92-.89,1.45-1.24,.59-.38,.99-1.49,2.26-.45-.5,1.27-.92,2.67-1.58,3.93-3.76,7.12-7.58,14.22-11.4,21.31-7.29,13.53-16.19,25.88-26.87,36.93-6.77,7-13.22,14.22-21.58,19.61-22.45,14.48-46.12,26.08-72.14,32.6-2.34,.59-4.42,.93-6.71-.33-1.42-.79-2.86,.31-3.26,1.98-.1,.41-.18,.83-.23,1.25-1.03,9.76-3.62,19.13-7.1,28.29-1.35,3.55-2.25,7.28-3.35,10.92-.12,.41-.2,.83-.35,1.22-.46,1.21-2.28,2.3-3.61,2.06-1.2-.22-1.59-1.19-1.88-2.27-.72-2.66-1.29-5.38-2.3-7.93-3.69-9.25-7.53-18.45-11.35-27.65-1.13-2.73-2.37-5.41-2.66-8.64,.78-.68,1.49-1.47,2.34-2.03Zm124.2-74.39c-3.04,3.17-6.05,6.36-8.96,9.64-1.04,1.17-.79,2.94,.24,4.02,1.14,1.2,3.11,1.22,4.5-.13,3.07-2.98,4.9-6.75,6.52-10.63,.3-.73,.29-1.62,.26-2.43-.01-.29-.54-.55-.96-.95-.48,.13-1.25,.11-1.6,.47Zm-11.61-24.23c-1.71,3.58-3.34,7.21-4.99,10.82-.09,.19-.16,.39-.22,.59-.49,1.81,.38,3.56,1.99,4.03,1.54,.45,3.32-.53,3.75-2.48,.86-3.87,1.53-7.78,2.16-11.7,.12-.75-.27-1.57-.56-3.1-1.25,1.06-1.9,1.35-2.14,1.84Zm-18.86,12.55c-2.52,3.61-4.99,7.27-7.4,10.96-.31,.47-.42,1.28-.25,1.82,.23,.74,.66,1.65,1.27,1.97,.62,.32,1.61,.15,2.35-.09,.53-.17,1.09-.74,1.34-1.27,1.84-4.01,3.66-8.03,5.34-12.1,.22-.52-.37-1.38-.65-2.27-.95,.45-1.7,.55-2,.98Zm20.49,42.5c-2.99,2.67-5.91,5.43-8.85,8.17-1.08,1.01-1.28,2.48-.44,3.38,.95,1.04,2.14,1.38,3.43,.77,.75-.35,1.52-.81,2.1-1.39,2.86-2.89,5-6.28,6.61-9.99,.19-.43-.26-1.14-.5-2.01-.9,.4-1.78,.56-2.35,1.07Zm-38.64-6.85c-4.52,2.12-7.84,5.68-11.06,9.33-.88,.99-.63,2.64,.29,3.44,.92,.79,2.72,.9,3.49-.02,3.12-3.72,6.18-7.49,9.18-11.31,.19-.24-.31-1.04-.48-1.52-.61,.03-1.08-.07-1.43,.09Zm8.16,22.21c-2.6,1.83-5.14,3.75-7.7,5.63-1.19,.87-2.53,1.59-3.58,2.61-.49,.48-.69,1.58-.54,2.29,.26,1.2,1.41,1.46,2.51,1.36,.62-.05,1.33-.17,1.8-.52,3.75-2.8,7.16-5.96,9.71-9.93,.23-.36-.15-1.11-.28-1.82-.77,.13-1.49,.05-1.93,.36Zm-27.69,3.07c-3.15,1.69-6.27,3.42-9.4,5.17-.36,.2-.68,.5-.95,.81-.77,.87-1.07,2.02-.31,2.85,.62,.67,1.73,.89,2.64,1.27,.16,.06,.42-.05,.6-.15,3.97-2.05,7.33-4.85,10.06-8.38,.21-.27,.2-.85,.06-1.18-.14-.32-.6-.51-1.02-.84-.51,.13-1.16,.18-1.69,.46Zm78.74-44.21c-.63,1.05,.14,2.57,1.28,3.14,1.13,.56,2.2,.18,2.82-.64,2.31-3.04,3.7-6.53,4.2-10.31,.07-.56-.71-1.24-1.25-2.12-3.43,2.91-5.04,6.57-7.05,9.93Zm-36.91,13.17c-2.57,1.78-5.15,3.54-7.62,5.45-.89,.69-.93,1.89-.2,2.82,.69,.89,1.74,1.32,2.77,.71,3.09-1.85,5.58-4.35,7.49-7.4,.15-.25,0-.83-.21-1.12-.22-.3-.67-.43-1.01-.64-.41,.05-.91-.04-1.21,.17Zm50.16-32.37c.72-.18,1.56-.82,1.89-1.48,1.4-2.8,2.68-5.66,3.89-8.56,.18-.43-.1-1.35-.48-1.63-.31-.23-1.36-.03-1.59,.31-1.78,2.58-3.49,5.22-5.12,7.9-.41,.67-.46,1.55-.79,2.72,.86,.32,1.62,.88,2.19,.74Zm-105.08,60.53c-2.62,.97-4.7,2.73-6.32,4.98-.34,.47-.5,1.19-.44,1.77,.06,.56,.37,1.29,.81,1.57,.43,.27,1.17,.16,1.74,.04,.37-.08,.73-.43,.99-.74,1.74-2.07,3.46-4.17,5.78-6.98-1.46-.39-2.12-.81-2.57-.64Z"/>
  <path class="cls-8" d="M268.77,26.25c4.79,4.14,7.83,9.47,9.94,15.32,3.02,8.38,5.99,16.78,8.61,25.29,1.49,4.84,2.47,9.88,3.24,14.89,1,6.49,1.36,13.08,2.4,19.56,.65,4.04-.34,7.51-1.99,11.03-5.87,12.56-15.69,21.5-26.91,29.04-5.51,3.7-11.57,3.83-17.57,.87-10.89-5.37-20.91-12.09-30.4-19.63-4.54-3.61-8.06-8.12-11.29-12.87-5.16-7.6-8.98-15.8-11.66-24.62-3.03-9.97-2.22-19.7,.92-29.38,3.78-11.62,14.07-17.29,24.89-17.11,6.47,.11,12.59,1.49,18.27,4.73,3.5,2,7.06,3.9,10.69,5.63,.74,.35,2.08-.03,2.89-.5,1.05-.61,1.11-1.92,.42-2.8-1.86-2.34-1.35-4.6-.44-7.15,2.65-7.42,8.23-11.48,15.19-14.27,1.09,.77,2,1.3,2.79,1.98Zm7.46,62.64c-2-6.02-4.29-11.94-6.6-17.85-1.05-2.67-2.14-3.13-4.88-2.95-3.79,.25-7.58,.44-11.37,.67-.84,.05-1.7,.06-2.52,.23-2.79,.56-4.21,3.17-3.13,5.79,.32,.77,.78,1.5,1.29,2.17,6.99,9.14,12.37,19.19,16.95,29.71,.85,1.94,1.74,3.86,2.68,5.75,.47,.94,.99,1.89,1.65,2.7,1.95,2.4,5.42,2.13,6.85-.67,.74-1.45,1.01-3.19,1.29-4.83,.21-1.24,.11-2.53,.15-3.8,.09-5.76-.54-11.45-2.35-16.91Zm-35.01-7.72c-2.11-3.74-8.89-4.71-11.41,.58-.63,1.33-1.15,2.75-1.5,4.18-.87,3.59,.82,6.94,4.07,8.38,2.95,1.31,6.82-.16,8.59-3.47,.78-1.45,1.11-3.14,1.71-4.89-.47-1.62-.66-3.36-1.46-4.77Zm38.48-11.87c-1.79,.2-3.14,1.05-4.07,2.6-2.19,3.67-.09,9.05,4,10.23,3.71,1.08,6.95-1.66,6.94-5.87,0-4.73-2.66-7.42-6.87-6.96Z"/>
  <path class="cls-3" d="M162.79,224.86c1.58-1.11,2.69-1.71,3.56-2.55,2.14-2.05,4.52-3.97,6.19-6.37,4.24-6.08,8.18-12.37,12.17-18.63,.67-1.05,1.27-2.3,1.4-3.52,.74-6.93,2.51-13.77,1.6-20.86-.67-5.25-.96-10.54-1.42-15.82-.29-3.31-1.79-6.05-3.91-8.52-2.79-3.26-5.98-6.09-9.85-7.93-5.54-2.64-11.12-5.26-16.87-7.38-7.32-2.71-14.45-1.93-21.45,1.83-12.5,6.73-21.58,16.94-29.69,28.22-.6,.83-1.1,1.88-1.22,2.88-1.24,10.73-2.41,21.48-3.56,32.22-.09,.83,0,1.69,.08,2.53,.14,1.38,1.59,2.19,2.82,1.53,.93-.49,1.81-1.09,2.66-1.71,9.03-6.5,16.65-14.41,23.32-23.29,1.27-1.69,2.59-3.35,4.08-4.83,.45-.45,1.69-.52,2.33-.23,.61,.28,1.32,1.28,1.27,1.92-.13,1.88-.52,3.77-.98,5.61-3.33,13.37-6.72,26.72-10.05,40.09-.5,2.01-1.29,4.09,.41,6.42,.86-.24,1.9-.36,2.75-.81,3.23-1.7,5.93-4.11,8.26-6.89,4.36-5.19,8.63-10.47,12.95-15.7,2.84-3.43,5.71-6.83,8.58-10.24,.55-.65,1.14-1.26,1.73-1.86,1.1-1.11,2.35-1.86,3.98-1.29,1.37,.49,1.93,1.96,1.65,4.37-1,8.63-2.06,17.26-3.01,25.89-.15,1.38,.11,2.8,.21,4.89Z"/>
  <path class="cls-2" d="M159.77,199.33c-2.25,1.31-3.56,3.53-5.1,5.49-3.14,4.01-6.17,8.11-9.4,12.04-4.31,5.26-8.87,10.28-14.79,13.88-1,.61-1.96,1.73-2.35,2.82-4.18,11.58-8.13,23.24-9.55,35.57-.04,.38,.19,.8,.4,1.63,1.89,.57,3.88,.59,5.78-.61,1.61-1.02,3.26-2.02,4.7-3.26,5.16-4.42,10.19-8.98,14.33-14.43,5.39-7.08,10.84-14.12,16.44-21.39-3.5-4.81-2.73-10.03-1.95-15.3,.78-5.23,1.34-10.49,1.98-15.74,.02-.14-.21-.31-.5-.69Z"/>
  <path class="cls-2" d="M122.64,232.12c-2.53-5.07-2.75-5.91-2.14-11.12,.24-2.09,.69-4.17,1.22-6.21,2.28-8.8,4.63-17.59,6.94-26.38,.2-.78,.27-1.59,.57-3.46-2.7,2.83-4.66,4.94-6.68,6.99-2.08,2.11-4.17,4.21-6.35,6.21-2.02,1.86-4.12,3.65-6.28,5.35-2.32,1.83-4.76,3.52-7.26,5.35-1.69,3.58-2.07,7.62-2.77,11.55-1.33,7.49-2.53,15.01-3.66,22.53-.54,3.61,.14,7.18,.99,10.68,.18,.75,.86,1.38,1.26,2,2.75-.25,4.42-1.99,6.1-3.54,7.15-6.59,15.16-13.77,18.05-19.97Z"/>
  <path class="cls-5" d="M200.32,301.8c-4.01,2.05-7,3.59-10,5.1-3.22,1.62-6.42,3.27-9.67,4.81-3.03,1.44-6.13,2.76-8.82,3.96-.78,1.65,0,2.49,.48,3.39,1.4,2.61,2.71,5.26,4.2,7.82,5.79,9.92,12.19,19.34,21.69,26.06q3.51-1.76,8.06-1.19c-.27-16.56-5.5-32.44-5.95-49.96Z"/>
  <path class="cls-3" d="M95.56,261.74c-3.66,9.65-7.19,18.72-10.53,27.85-1,2.73-1.88,5.57-1.9,8.95,3.11,.27,5.48-1.17,7.85-2.31,9.32-4.49,16.6-11.57,23.8-18.51-.69-2.87-1.64-5.28-1.75-7.73-.1-2.49,.57-5.03,1.02-7.53,.45-2.5,1.01-4.98,1.56-7.46,.5-2.25,1.03-4.49,1.56-6.78-1.61-.54-1.87,.75-2.49,1.37-2.56,2.53-5.01,5.19-7.66,7.61-3.01,2.75-6.3,5.11-11.45,4.54Z"/>
  <path class="cls-3" d="M6.19,288.49c9.12,8.12,19.82,8.78,30.49,10.59,.34-.43,.8-.87,1.1-1.41,5.14-9.26,10.27-18.52,15.37-27.8,.68-1.23,1.21-2.54,1.77-3.74-1.34-1.11-2.34-.47-3.23-.04-3.22,1.6-6.5,3.13-9.57,4.98-7.29,4.41-15.05,7.74-22.96,10.82-2.96,1.15-5.88,2.42-8.75,3.78-1.29,.61-2.4,1.58-4.23,2.81Z"/>
  <path class="cls-2" d="M72.18,247.7c-1.02,4.8-2.04,9.52-3.04,14.25-1.49,7.02-2.99,14.03-4.45,21.06-.29,1.42-.89,3.12,.64,4.07,1.68,1.04,3.24,.03,4.57-1.08,1.14-.94,2.26-1.91,3.29-2.97,6.67-6.84,12.43-14.36,17.16-22.67,.87-1.52,1.52-3.05,.99-4.8-1.5-4.9-1.07-9.99-1.42-14.94-1.11-.66-1.52,.23-2.08,.76-1.99,1.88-3.88,3.89-6,5.61-2.28,1.84-4.85,2.51-7.63,.82-.43-.26-1.13-.07-2.03-.1Z"/>
  <path class="cls-3" d="M95.99,178.49c-1.9,1.11-2.47,2.96-3.31,4.55-4.75,9-8.39,18.48-11.61,28.12-1.95,5.81-3.59,11.74-5.7,17.49-1.79,4.88-.61,9.03,2.18,13.41,1.05-.46,2.17-.65,2.83-1.29,6.8-6.64,11.8-14.34,13.77-23.79,.39-1.86,.98-3.69,1.23-5.57,.19-1.43,.34-3.05-.13-4.35-1.12-3.11-1.01-6.25-.79-9.41,.44-6.31,1-12.6,1.53-19.15Z"/>
  <path class="cls-2" d="M140.83,265c-3.15,2.58-5.41,4.46-7.71,6.29-3.84,3.04-7.75,5.96-12.83,6.6-1.6,.2-2.66,1.21-3.6,2.4-1.57,2-3.17,3.98-4.74,5.98-4.65,5.92-10.24,10.79-16.94,14.19-4.15,2.11-5.32,5.75-6.24,9.71-.31,1.34,.92,2.38,2.38,2.17,3.01-.45,5.66-1.73,8.06-3.55,9.1-6.94,18.2-13.89,27.28-20.85,1.34-1.03,2.62-2.16,3.89-3.28,6.69-5.93,8.15-8.56,10.45-19.65Z"/>
  <path class="cls-4" d="M127.93,391.37c-.08-4.49-.99-7.46-2.06-10.38-.73-1.99-1.69-3.89-2.46-5.86-.77-1.98,.74-4.11,2.87-3.71,3.74,.7,7.41,1.73,11.1,2.69,1.56,.4,2.95,1.5,5.2,1.42-2.9-5.04-6.82-7.95-11.78-9.6-1.5-.5-2.81-.09-4.23,.61-3.2,1.56-8.88,1.4-12.08-.09-1.72-.81-3.43-1.64-5.15-2.46-11.09,2.81-18.21,13.76-15.73,24.8,.76-.55,1.5-.89,1.98-1.45,1.09-1.3,2.1-2.67,3.06-4.06,3.5-5.12,8.43-8.25,14.15-10.32,3.05-1.1,6.17,.21,7.01,3.43,1.38,5.3,4.89,9.29,8.12,15Z"/>
  <path class="cls-4" d="M194.57,359.27c-2.67,3.79-3.35,7.41-3.17,11.84,5.28-1.93,9.96-4.11,14.08-6.95,3.19,.93,5.06,3.08,7.02,4.92,2.14,2.02,3.81,4.52,5.77,6.75,1.77,2.02,2.61,4.84,5.23,6.38,.53-6.14-2.1-12.79-6.26-16.03-.66-.52-1.46-.87-2.15-1.35-1.39-.97-1.99-2.24-1.47-3.1,.73-1.21,1.93-1.8,3.23-1.64,4.03,.5,7.88,1.67,11.44,3.68,1.03,.58,2.02,1.22,3.2,1.93,.28-2.02-1.04-2.56-1.95-3.25-2.7-2.05-5.48-3.99-8.23-5.96-3.44-2.46-7.38-1.23-11.11-1.47-1.98,2.07-5.36,1.58-7.15,3.31-2.67,2.58-5.2,2.32-8.47,.95Z"/>
  <path class="cls-2" d="M82.07,304.98c-4.39-1.28-5.11-4.19-4.63-7.66,.26-1.88,.66-3.74,1-5.61,.25-1.41,.51-2.82,.91-5.02-1.34,.71-2.04,.96-2.61,1.4-2,1.55-3.75,3.58-5.98,4.64-3.32,1.59-5.17,4.14-6.63,7.27-1.52,3.25-3.34,6.37-4.76,9.66-.98,2.27-1.52,4.74-2.32,7.35,.99,.23,1.66,.62,2.1,.44,7.25-2.94,14.43-6.03,20.94-10.45,.5-.34,.87-.88,1.99-2.03Z"/>
  <path class="cls-3" d="M148.94,263.12c14.51-14.04,27.95-36.66,31.63-49.78-1,1-1.6,1.42-1.97,2-3.05,4.65-6.82,8.62-11.17,12.06-1.68,1.32-3.17,2.73-4.11,4.73-4.49,9.57-9.05,19.12-13.56,28.68-.35,.73-.55,1.54-.81,2.31Z"/>
  <path class="cls-3" d="M46.42,308.32c5.88-2.7,10.24-6.79,12.91-12.57,.5-1.07,.8-2.57,.47-3.63-1.67-5.28-1.16-10.45,.2-15.66,.15-.59,.06-1.24,.09-2.38-.6,.65-1.04,.93-1.2,1.33-3.64,9.07-8.25,17.64-13.36,25.95-1.54,2.51-1.38,4.7,.89,6.96Z"/>
  <path class="cls-3" d="M83.96,317.14c-.9-2.14-1.63-3.87-2.53-6-1.96,1.38-3.84,2.66-5.69,4-3.96,2.85-7.92,5.7-12.51,7.46-1.77,.68-3.6,1.23-5.44,1.69-3.79,.95-3.91,1-6.81,5.51,7.73-.2,25.09-6.81,32.98-12.66Z"/>
  <path class="cls-3" d="M38.49,327.88c4.44,.4,7.62-.9,12.41-4.93-.15-2.87-.3-5.75-.46-8.72-.97-1.02-1.88-.21-2.69,.33-.68,.46-1.31,1.08-1.79,1.75-2.22,3.07-4.4,6.17-6.54,9.3-.44,.64-.62,1.46-.94,2.27Z"/>
  <path class="cls-3" d="M31.67,325.58c3.86-3.36,7.52-6.75,11.04-10.79-1.03-1.21-1.92-2.26-3.16-3.72-2.95,4.66-5.65,8.89-8.29,13.16-.13,.21,.21,.72,.41,1.35Z"/>
  <path class="cls-6" d="M228.5,238.7c-.48,.13-1.25,.11-1.6,.47-3.04,3.17-6.05,6.36-8.96,9.64-1.04,1.17-.79,2.94,.24,4.02,1.14,1.2,3.11,1.22,4.5-.13,3.07-2.98,4.9-6.75,6.52-10.63,.3-.73,.29-1.62,.26-2.43-.01-.29-.54-.55-.96-.95Z"/>
  <path class="cls-6" d="M217.43,213.11c-1.25,1.06-1.9,1.35-2.14,1.84-1.71,3.58-3.34,7.21-4.99,10.82-.09,.19-.16,.39-.22,.59-.49,1.81,.38,3.56,1.99,4.03,1.54,.45,3.32-.53,3.75-2.48,.86-3.87,1.53-7.78,2.16-11.7,.12-.75-.27-1.57-.56-3.1Z"/>
  <path class="cls-6" d="M198.43,226.52c-.95,.45-1.7,.55-2,.98-2.52,3.61-4.99,7.27-7.4,10.96-.31,.47-.42,1.28-.25,1.82,.23,.74,.66,1.65,1.27,1.97,.62,.32,1.61,.15,2.35-.09,.53-.17,1.09-.74,1.34-1.27,1.84-4.01,3.66-8.03,5.34-12.1,.22-.52-.37-1.38-.65-2.27Z"/>
  <path class="cls-6" d="M219.27,268.92c-.9,.4-1.78,.56-2.35,1.07-2.99,2.67-5.91,5.43-8.85,8.17-1.08,1.01-1.28,2.48-.44,3.38,.95,1.04,2.14,1.38,3.43,.77,.75-.35,1.52-.81,2.1-1.39,2.86-2.89,5-6.28,6.61-9.99,.19-.43-.26-1.14-.5-2.01Z"/>
  <path class="cls-6" d="M179.71,263.06c-.61,.03-1.08-.07-1.43,.09-4.52,2.12-7.84,5.68-11.06,9.33-.88,.99-.63,2.64,.29,3.44,.92,.79,2.72,.9,3.49-.02,3.12-3.72,6.18-7.49,9.18-11.31,.19-.24-.31-1.04-.48-1.52Z"/>
  <path class="cls-6" d="M188.37,285c-.77,.13-1.49,.05-1.93,.36-2.6,1.83-5.14,3.75-7.7,5.63-1.19,.87-2.53,1.59-3.58,2.61-.49,.48-.69,1.58-.54,2.29,.26,1.2,1.41,1.46,2.51,1.36,.62-.05,1.33-.17,1.8-.52,3.75-2.8,7.16-5.96,9.71-9.93,.23-.36-.15-1.11-.28-1.82Z"/>
  <path class="cls-6" d="M160.45,287.98c-.51,.13-1.16,.18-1.69,.46-3.15,1.69-6.27,3.42-9.4,5.17-.36,.2-.68,.5-.95,.81-.77,.87-1.07,2.02-.31,2.85,.62,.67,1.73,.89,2.64,1.27,.16,.06,.42-.05,.6-.15,3.97-2.05,7.33-4.85,10.06-8.38,.21-.27,.2-.85,.06-1.18-.14-.32-.6-.51-1.02-.84Z"/>
  <path class="cls-6" d="M244.56,234.3c-3.43,2.91-5.04,6.57-7.05,9.93-.63,1.05,.14,2.57,1.28,3.14,1.13,.56,2.2,.18,2.82-.64,2.31-3.04,3.7-6.53,4.2-10.31,.07-.56-.71-1.24-1.25-2.12Z"/>
  <path class="cls-6" d="M201.8,257.24c-.41,.05-.91-.04-1.21,.17-2.57,1.78-5.15,3.54-7.62,5.45-.89,.69-.93,1.89-.2,2.82,.69,.89,1.74,1.32,2.77,.71,3.09-1.85,5.58-4.35,7.49-7.4,.15-.25,0-.83-.21-1.12-.22-.3-.67-.43-1.02-.64Z"/>
  <path class="cls-6" d="M248.56,224.3c.86,.32,1.62,.88,2.19,.74,.72-.18,1.56-.82,1.89-1.48,1.4-2.8,2.68-5.66,3.89-8.56,.18-.43-.1-1.35-.48-1.63-.31-.23-1.36-.03-1.59,.31-1.78,2.58-3.49,5.22-5.12,7.9-.41,.67-.46,1.55-.79,2.72Z"/>
  <path class="cls-6" d="M148.24,286.21c-1.46-.39-2.12-.81-2.57-.64-2.62,.97-4.7,2.73-6.32,4.98-.34,.47-.5,1.19-.44,1.77,.06,.56,.37,1.29,.81,1.57,.43,.27,1.17,.16,1.74,.04,.37-.08,.73-.43,.99-.74,1.74-2.07,3.46-4.17,5.78-6.98Z"/>
  <path class="cls-6" d="M278.44,109.6c-.28,1.64-.55,3.38-1.29,4.83-1.43,2.8-4.9,3.07-6.85,.67-.66-.81-1.18-1.76-1.65-2.7-.94-1.9-1.84-3.81-2.68-5.75-4.58-10.51-9.96-20.57-16.95-29.71-.51-.66-.97-1.4-1.29-2.17-1.07-2.62,.35-5.23,3.13-5.79,.82-.17,1.68-.18,2.52-.23,3.79-.23,7.58-.42,11.37-.67,2.74-.18,3.84,.28,4.88,2.95,2.31,5.91,4.6,11.84,6.6,17.85,1.82,5.45,2.45,11.15,2.35,16.91-.04,1.27,.06,2.56-.15,3.8Zm-20.63-33.91c.5,1.31,.74,2.28,1.22,3.11,1.77,3.11,3.62,6.18,5.44,9.26,.66,1.12,1.48,2.01,2.84,2.3,1.3,.28,2.74-.57,2.73-1.83-.06-4.65-1.07-9.12-2.51-14.41-3.55,.57-6.4,1.03-9.72,1.57Zm13.03,20.68c-.1-.48-.6-1-1.06-1.24-.55-.29-1.04,.92-.62,1.81,.32,.67,.77,1.27,1.63,2.64,.05-1.66,.21-2.47,.05-3.21Z"/>
  <path class="cls-6" d="M242.68,85.94c-.47-1.62-.66-3.36-1.46-4.77-2.11-3.74-8.89-4.71-11.41,.58-.63,1.33-1.15,2.75-1.5,4.18-.87,3.59,.82,6.94,4.07,8.38,2.95,1.31,6.82-.16,8.59-3.47,.78-1.45,1.11-3.14,1.71-4.89Z"/>
  <path class="cls-6" d="M286.57,76.27c0-4.73-2.66-7.42-6.87-6.96-1.79,.2-3.14,1.05-4.07,2.6-2.19,3.67-.09,9.05,4,10.23,3.71,1.08,6.95-1.66,6.94-5.87Z"/>
  <path class="cls-7" d="M267.53,74.12c-3.55,.57-6.4,1.03-9.72,1.57,.5,1.31,.74,2.28,1.22,3.11,1.77,3.11,3.62,6.18,5.44,9.26,.66,1.12,1.48,2.01,2.84,2.3,1.3,.28,2.74-.57,2.73-1.83-.06-4.65-1.07-9.12-2.51-14.41Z"/>
  <path class="cls-7" d="M270.79,99.57c.05-1.66,.21-2.47,.05-3.21-.1-.48-.6-1-1.06-1.24-.55-.29-1.04,.92-.62,1.81,.32,.67,.77,1.27,1.63,2.64Z"/>
</svg>