<?xml version="1.0" encoding="UTF-8"?>
<svg id="Layer_1" data-name="Layer 1" xmlns="http://www.w3.org/2000/svg" viewBox="0 0 346.89 441.76">
  <defs>
    <style>
      .cls-1 {
        fill: #e0c5a2;
      }

      .cls-2 {
        fill: #23130c;
      }

      .cls-3 {
        fill: #f47d6e;
      }

      .cls-4 {
        fill: #f7e5b5;
      }
    </style>
  </defs>
  <path class="cls-2" d="M282.57,317.52c.66-1.09,1.31-2.21,2.01-3.31,3.94-6.21,9.42-10.68,16-13.78,13.57-6.4,28.57,2.57,29.69,17.65,.06,.83,.16,1.67,.3,2.99,1.69,.64,3.52,1.26,5.3,2.01,12.43,5.19,13.48,20.18,7.44,28.1-2.05,2.69-4.74,4.9-7.18,7.29-1.01,.99-2.12,1.88-3,2.64-.2,.86-.53,1.45-.42,1.95,1.82,8.55-2.32,14.26-8.99,18.66-1.88,1.24-4.05,2.1-6.19,2.85-2.47,.86-4.53,1.92-6.21,4.17-5.45,7.33-12.22,7.46-19.88,4.44-2.63-1.04-5.03-2.69-7.52-4.08-2.21-1.23-4.4-2.48-6.37-3.59-.9,.47-1.63,.6-1.85,1-6.23,11.43-15.32,20.54-24.27,29.72-10.08,10.34-22.32,16.43-36.74,18.54-19.76,2.89-39.5,5.88-59.49,6.56-9.11,.31-18.26,.99-27.34-.4-3.64-.56-7.33-1.32-10.77-2.59-6.26-2.31-8.18-6.48-6.38-12.9,1.19-4.26,3.73-7.72,6.98-10.58,2.98-2.62,6.23-4.94,9.36-7.39,.19-1.94-1.37-2.1-2.6-2.68-4.1-1.96-8.28-3.8-12.22-6.05-5.08-2.9-8.23-7.71-10.8-12.48-2.39-.19-2.64,1.53-3.49,2.52-.55,.64-.87,1.48-1.4,2.14-5.86,7.23-12.52,12.67-22.84,9.59-1.42,2.1-2.59,4.04-3.96,5.84-6.68,8.74-19.65,9.05-26.84,.69-2.47-2.87-4.06-6.2-5.03-9.82-1.64-6.1-2.39-12.29-1.87-18.63,.97-11.69,2.85-23.2,6.07-34.51,1.79-6.28,2.58-12.72,1.97-19.81-6.55,.54-10.2,5.19-14.44,8.47-3.38-.11-4.68-2.56-5.52-4.89-5.49-15.3-8.79-30.77-2.49-46.73,.73-1.85,1.23-3.8,1.78-5.72,.15-.53,.13-1.12,.23-2.11-1.79-1.06-3.64-2.34-5.64-3.32C-.56,260.89-3.57,242.39,3.55,227.23c5.96-12.68,12.23-25.16,20.29-36.65,5.24-7.47,10.73-14.77,16.3-22.01,7.02-9.12,15.23-16.98,25.21-22.88,2.95-1.74,5.76-3.71,8.69-5.48,3.07-1.84,5.01-4.21,5.95-7.88,2.87-11.2,8.35-21.21,15.26-30.41,11.14-14.83,22.69-29.35,35.14-43.12,9.95-11,19.58-22.31,29.67-33.18,6.79-7.31,14.09-14.15,21.27-21.09,1.61-1.55,3.56-2.88,5.58-3.84,3.18-1.52,6.51-.48,7.97,2.72,1.15,2.53,1.98,5.41,2.08,8.17,.33,8.63-.97,16.97-4.52,25.03-12.03,27.29-27,52.87-44.84,76.69-9.56,12.77-19.47,25.37-31.78,35.76-.38,.32-.46,.98-.82,1.82,1.79,1.96,4.68,1.4,6.8,2.59,2.48,1.39,5.07,2.61,7.44,4.17,2.11,1.39,3.99,3.15,6.34,5.04,4.27-2.63,8.58-5.32,12.92-7.96,4.15-2.52,8.36-4.92,12.48-7.48,18.66-11.59,37.13-23.45,57.12-32.78,18.37-8.57,35.9-18.78,53.04-29.63,3.37-2.13,6.47-4.68,9.74-6.97,1.86-1.3,3.72-2.69,5.76-3.64,3.9-1.82,7.6,.53,7.81,4.87,.07,1.39-.21,2.83-.55,4.19-2.17,8.69-5.67,16.85-11.36,23.76-10.51,12.78-21.16,25.46-32.16,37.82-10.13,11.37-22.47,20.13-35.26,28.33-10.33,6.61-20.36,13.69-30.51,20.57-6.12,4.15-12.22,8.35-18.36,12.55-1.07,3.57,.05,6.89,.67,10.2,.66,3.51,2.45,6.32,5.68,8.15,1.73,.98,3.29,2.26,4.98,3.33,12.04,7.64,23.92,15.55,36.2,22.8,16.35,9.65,30.99,21.34,44.36,34.73,2.62,2.63,5.19,5.31,7.81,7.93,5.91,5.93,10.63,12.66,13.92,20.37,.44,1.04,.99,2.03,1.54,3.02,.12,.21,.47,.28,1.18,.68ZM109.14,155c-2.35,1.25-4.32,2.36-6.35,3.32-.34,.16-1.12-.2-1.45-.55-.33-.36-.63-1.16-.44-1.5,1.07-2,2.06-4.11,3.5-5.83,6.57-7.9,13.27-15.69,19.94-23.49,.74-.86,1.63-1.59,2.44-2.4,2.6-2.62,5.43-5.05,7.75-7.9,13.38-16.44,24.62-34.33,34.83-52.83,5.78-10.48,10.53-21.52,15.67-32.34,1.84-3.87,3.18-7.88,2.31-13.06-1.55,1.1-2.93,1.66-3.66,2.68-2.34,3.23-4.57,6.55-6.6,9.98-3.35,5.64-6.39,11.47-9.78,17.08-5.75,9.53-11.58,19.02-17.56,28.4-4.91,7.7-10.26,15.09-16.41,21.9-7.68,8.5-16.27,16-24.85,23.54-8.77,7.71-17.73,15.24-24.45,24.97-.39,.57-1.5,.65-2.42,1.02-1.56-1.59-3.06-3.13-4.69-4.79-6,4.21-11.4,8.4-16.16,13.32-20.43,21.13-36.76,45.06-48.68,71.95-1.75,3.94-3.21,7.94-3.34,12.31-.19,6.3,1.58,11.83,6.52,16.02,.33,.28,1.03,.13,1.62,.19,1.8-1.28,.21-4.74,3.56-5.44,3.45,1.89,2.7,7.29,7.18,9.21,.47-5,.89-9.75,.59-14.46-.9-1.02-1.82-1.77-2.36-2.73-.96-1.72-1.93-3.5-2.42-5.38-.23-.86,.43-2.21,1.09-2.99,1.03-1.22,2.54-1.15,3.89-.41,.73,.4,1.39,1,1.98,1.6,2.74,2.74,6.04,2.93,9.54,2.09,1.94-.46,3.83-1.18,5.79-1.5,3.21-.53,5.85,1.12,6.72,3.94,.7,2.28-.71,4.75-3.73,5.9-2.88,1.1-5.89,1.87-9.09,2.86-.39,3.87-.84,7.53-1.09,11.2-.19,2.75,1.78,4.32,4.43,3.44,1.85-.61,3.6-1.61,5.25-2.67,1.18-.76,2.06-1.97,3.19-2.83,1.22-.94,2.63-1.06,3.97-.2,1.34,.86,1.62,2.89,.54,4.6-1.31,2.06-2.75,4.04-4.54,6.66,2.14,.37,3.48,.75,4.85,.83,7.97,.46,15.91,1.09,23.94,.48,9.09-.69,18.23-.71,27.34-1.02,14.9-.5,25.22-7.63,31.44-21.18,2.55-5.55,4.72-10.92,3.56-17.22-.4-2.15-.03-4.56,.47-6.73,.59-2.54,4.46-3.3,6.31-1.36,.76,.8,1.53,1.8,1.77,2.84,1.69,7.37,2.29,14.74-1.47,21.7-2.71,5.01-5.39,10.09-8.62,14.76-5.03,7.28-11.87,12.37-20.7,14.14-6.14,1.23-12.36,2.09-18.56,2.93-4.23,.57-8.5,.88-12.77,1.19-8.52,.63-17.05,1.61-25.58,1.64-8.57,.03-17.06-1.16-25.11-4.61-3-1.28-6.08-2.89-9.71-2.66-1.21,5.04-3.09,9.67-3.3,14.38-.47,10.69,2.66,20.7,7.53,30.78,6.49-5,12.5-9.79,18.69-14.34,3.89-2.86,7.86-5.72,12.13-7.94,3.91-2.04,8.34,.5,8.99,4.89,.32,2.17,.02,4.57-.56,6.71-.81,3.02-2.25,5.86-3.18,8.86-.37,1.18-.08,2.57-.09,4.33,1.7-.35,2.91-.34,3.84-.84,5.02-2.69,10.17-5.21,14.91-8.34,5.47-3.61,10.52-7.85,15.84-11.7,1.57-1.14,3.37-2.22,5.22-2.62,1.06-.23,2.7,.72,3.56,1.63,.6,.64,.69,2.23,.36,3.16-.45,1.28-1.6,2.3-2.3,3.52-.69,1.21-1.39,2.48-1.71,3.82-.84,3.55,1.28,5.89,4.64,4.97,2.44-.67,4.92-1.61,7.04-2.97,7.47-4.8,14.47-10.19,19.89-17.37,2.75-3.64,5.56-7.25,8.4-10.82,.87-1.1,1.81-2.29,2.99-2.96,.84-.48,2.5-.64,3.15-.13,.99,.78,1.89,2.25,1.95,3.46,.06,1.28-.71,2.75-1.47,3.9-1.88,2.86-3.87,5.65-5.99,8.34-3.52,4.46-7.17,8.82-10.59,13.01,1.3,5.69,2.81,10.91,3.65,16.23,1.47,9.3,.67,18.44-5.5,26.01-5.57,6.84-11.65,13.25-20.33,16.52-4.59,1.72-8.12,5.02-10.51,9.24,3.65,7.93,10.52,10.62,17.77,12.7,4.11,1.18,8.35,1.96,12.38,3.36,10.43,3.61,21.27,3.98,32.1,4.48,1.24,.06,2.51-.63,4.36-1.12-1.85-2.4-3.21-4.19-4.6-5.96-4.82-6.19-8.23-13.13-9.73-20.77-3.88-19.74,.24-38,11.23-54.69,3.66-5.56,8.87-9.59,14.68-12.87,6.73-3.79,19.72-2.24,23.46,4.1,.75,1.26,1.4,2.52-.18,3.66-.53-.21-1.07-.37-1.56-.62-7.94-4.13-13.04-3.45-19.21,2.65-1.21,1.2-2.29,2.55-3.3,3.93-8.15,11.08-13.04,23.38-13.68,37.21-.88,19.08,5.99,34.48,21.83,45.57,.23,.16,.47,.32,.69,.5,1.75,1.36,2.41,3.15,1.94,5.29-.48,2.21-2.08,3.57-4.15,3.79-4.53,.48-9.1,.7-13.65,.87-8.55,.32-17.09,.53-25.64,.78-10.03,.3-17.87,5.27-24.89,11.85-.92,.86-1.3,2.29-2.21,3.96,8.21,1.79,15.89,2.3,23.56,2.35,22.59,.15,44.96-2.62,67.29-5.71,11.13-1.54,20.56-6.28,28.87-13.8,12.5-11.31,21.98-24.59,28.16-40.33,2.9-7.37,3.93-14.84,3.3-22.63-.19-2.27-.45-4.54-.65-6.82-1.47-16.55-7.24-31.04-20.11-42.15-.43-.37-.8-.82-1.19-1.23-13.56-14.04-28.55-26.25-45.47-36.08-5.42-3.15-10.55-6.81-15.88-10.13-6.84-4.25-12.8-9.55-18.41-15.27-3.4-3.46-6.65-7.07-10.16-10.42-2.2-2.1-3.29-4.53-3.68-7.48-.29-2.19-.93-4.34-1.53-6.98-2.32,1.06-4.08,1.92-5.88,2.68-2.36,1-4.71,2.03-7.14,2.83-1.44,.47-3.03,.02-3.58-1.47-.34-.91-.2-2.54,.41-3.16,1.77-1.8,3.66-3.82,5.91-4.74,11.21-4.6,20.81-11.75,30.56-18.69,12.1-8.61,24.25-17.1,37.02-24.71,14.09-8.4,26.27-19.12,36.67-31.85,6.86-8.4,13.87-16.68,20.72-25.09,2.34-2.87,4.47-5.92,6.54-8.98,.52-.78,.47-1.95,.93-4.12-2.91,1.92-4.79,3.1-6.61,4.37-14.01,9.84-28.02,19.68-42.02,29.54-7,4.93-14.07,9.75-20.94,14.85-7.1,5.27-13.8,11.12-21.04,16.18-9.11,6.37-18.53,12.32-27.96,18.21-4.8,2.99-9.46,4.01-15.31,4.26,1.62-3.3,4.08-5.66,6.67-7.8,4.4-3.63,8.78-7.33,13.52-10.48,13.56-9.03,26.49-18.88,39.24-29,.93-.73,2.59-1.15,2.13-3.64-5.41,3.11-10.58,6.02-15.69,9.03-10.81,6.38-21.39,13.17-32.43,19.11-10.28,5.53-21.03,10.2-31.6,15.19-.32,.15-.94-.34-1.4-.53-1.69-2.78,2.85-4.26,1.23-7.41-4.88-4.73-10.92-8.36-18.3-10.94Zm-42.01,240.68c-.69-1.22-1.13-2.28-1.8-3.15-3.74-4.81-5.87-10.35-7.83-16.04-2.11-6.12-1.28-11.76,1.77-17.25,4.24-7.67,9.97-13.9,17.89-17.82,7.12-3.53,14.4-6.76,20.96-11.33,.19-.13,.55,0,.82,0,1.17,1.3,.83,2.64-.04,3.86-3.02,4.23-6.84,7.62-11.21,10.4-7.4,4.7-12.71,11.35-17.28,18.66-2.98,4.78-4.36,9.89-2.73,15.48,1.37,4.71,3.66,8.96,6.74,12.76,1.21,1.5,2.87,1.86,4.6,.99,3.85-1.95,7.36-4.35,9.81-8.03,1.74-2.61,3.29-5.35,5.2-7.83,5.76-7.49,11.89-14.37,21.11-18.11,6.34-2.57,11.73-7.07,15.84-12.7,1.65-2.26,3.34-4.78,4.01-7.43,1.84-7.23,2.29-14.61,.55-21.98-.1-.41-.73-.7-1.37-1.27-2.35,1.36-4.79,2.79-7.24,4.19-4.27,2.43-8.78,3.96-13.76,4.17-3.77,.16-6.59-1.23-8.78-4.23-.91-1.25-.66-3.47-3.3-3.63-2.28,1.76-4.66,3.8-7.23,5.56-3.75,2.58-7.53,5.14-11.47,7.41-5.86,3.37-12.53,3.58-19.02,4.17-2.61,.23-5.12-1.89-4.98-4.71,.18-3.64,.23-7.28,.35-11.32-3.64,.57-6.38,2.35-9.14,4.62,.45,3.18,.91,6.27,1.33,9.35,1.36,9.9,2.09,19.75-.13,29.7-1.24,5.54-1.56,11.28-2.2,16.95-.65,5.75,.13,11.39,1.79,16.88,.65,2.14,1.64,4.3,2.98,6.07,2.7,3.58,7.22,3.76,10.37,.49,1.33-1.38,2.23-3.18,3.39-4.88Zm213.57-18.2c4.07,4.1,9.06,6.26,13.81,8.73,3.78,1.97,8.15,2.2,11.14-2.68,1.99-3.25,4.68-4.63,8.27-5.26,3.42-.6,6.35-2.48,8.77-5.01,2.1-2.18,3.64-5.04,2.24-7.74-2.89-5.58-.18-8.44,4.18-11.05,1.45-.87,2.85-1.98,3.94-3.26,1.82-2.14,3.84-4.31,4.94-6.83,3.01-6.87-1-13.51-8.35-14.32-2.25-.25-4.54-.2-6.79-.51-1.68-.23-3.05-2.03-2.87-3.74,.22-1.96,.7-3.9,1.13-5.84,.93-4.14-.74-7.2-3.9-9.67-2.81-2.2-5.97-3.41-9.54-2.92-8.29,1.15-15.15,4.94-19.92,11.88-2.62,3.82-3.94,8.17-3.12,12.97,.48,2.8,.75,5.64,1.06,8.47,1.12,10.6,.84,21.02-3.64,30.99-.78,1.74-.91,3.78-1.35,5.77ZM86.11,134.52c1.09-1.29,2.3-2.49,3.25-3.87,6.66-9.7,14.8-18,23.66-25.71,8.83-7.7,16.79-16.31,23.21-26.13,7.17-10.96,13.96-22.17,20.85-33.31,.26-.43-.15-1.28-.36-2.64-1.85,1.97-3.23,3.37-4.53,4.84-3.95,4.49-7.78,9.1-11.82,13.51-16.78,18.3-31.81,38.01-46.82,57.74-3.42,4.49-6.45,9.28-7.44,15.58Z"/>
  <path class="cls-4" d="M109.14,155c7.38,2.58,13.42,6.21,18.3,10.94,1.62,3.15-2.91,4.63-1.23,7.41,.47,.19,1.09,.68,1.4,.53,10.57-4.99,21.32-9.65,31.6-15.19,11.04-5.94,21.62-12.74,32.43-19.11,5.11-3.01,10.28-5.92,15.69-9.03,.46,2.49-1.21,2.9-2.13,3.64-12.74,10.12-25.68,19.97-39.24,29-4.74,3.15-9.12,6.85-13.52,10.48-2.59,2.14-5.06,4.5-6.67,7.8,5.85-.25,10.51-1.27,15.31-4.26,9.44-5.88,18.85-11.84,27.96-18.21,7.24-5.06,13.94-10.9,21.04-16.18,6.87-5.1,13.94-9.93,20.94-14.85,14-9.86,28-19.7,42.02-29.54,1.82-1.28,3.7-2.45,6.61-4.37-.46,2.18-.4,3.35-.93,4.12-2.07,3.07-4.21,6.11-6.54,8.98-6.85,8.41-13.85,16.69-20.72,25.09-10.4,12.73-22.58,23.44-36.67,31.85-12.77,7.62-24.92,16.11-37.02,24.71-9.75,6.93-19.35,14.09-30.56,18.69-2.25,.92-4.14,2.94-5.91,4.74-.61,.62-.75,2.25-.41,3.16,.55,1.49,2.14,1.94,3.58,1.47,2.43-.79,4.78-1.83,7.14-2.83,1.8-.76,3.56-1.62,5.88-2.68,.59,2.64,1.24,4.79,1.53,6.98,.39,2.95,1.48,5.37,3.68,7.48,3.5,3.35,6.76,6.96,10.16,10.42,5.61,5.72,11.57,11.02,18.41,15.27,5.33,3.32,10.45,6.98,15.88,10.13,16.92,9.82,31.91,22.03,45.47,36.08,.4,.41,.76,.86,1.19,1.23,12.87,11.11,18.64,25.6,20.11,42.15,.2,2.27,.47,4.54,.65,6.82,.64,7.8-.4,15.26-3.3,22.63-6.19,15.74-15.66,29.01-28.16,40.33-8.31,7.52-17.74,12.26-28.87,13.8-22.33,3.09-44.7,5.85-67.29,5.71-7.67-.05-15.35-.56-23.56-2.35,.91-1.68,1.3-3.1,2.21-3.96,7.02-6.58,14.86-11.55,24.89-11.85,8.55-.26,17.1-.46,25.64-.78,4.56-.17,9.12-.39,13.65-.87,2.07-.22,3.67-1.57,4.15-3.79,.47-2.15-.2-3.93-1.94-5.29-.22-.17-.46-.33-.69-.5-15.84-11.08-22.72-26.49-21.83-45.57,.64-13.83,5.53-26.13,13.68-37.21,1.01-1.38,2.09-2.73,3.3-3.93,6.17-6.11,11.28-6.78,19.21-2.65,.49,.25,1.03,.41,1.56,.62,1.58-1.14,.92-2.4,.18-3.66-3.75-6.34-16.73-7.89-23.46-4.1-5.81,3.27-11.02,7.3-14.68,12.87-10.99,16.7-15.12,34.96-11.23,54.69,1.5,7.64,4.91,14.58,9.73,20.77,1.38,1.78,2.75,3.56,4.6,5.96-1.85,.5-3.12,1.18-4.36,1.12-10.83-.49-21.67-.87-32.1-4.48-4.03-1.39-8.27-2.17-12.38-3.36-7.25-2.09-14.11-4.77-17.77-12.7,2.39-4.22,5.92-7.51,10.51-9.24,8.68-3.26,14.76-9.67,20.33-16.52,6.17-7.57,6.97-16.71,5.5-26.01-.84-5.32-2.35-10.54-3.65-16.23,3.42-4.19,7.07-8.55,10.59-13.01,2.12-2.69,4.11-5.48,5.99-8.34,.76-1.15,1.53-2.62,1.47-3.9-.06-1.22-.96-2.68-1.95-3.46-.65-.51-2.3-.36-3.15,.13-1.18,.68-2.11,1.86-2.99,2.96-2.84,3.57-5.65,7.18-8.4,10.82-5.42,7.18-12.42,12.57-19.89,17.37-2.12,1.36-4.6,2.3-7.04,2.97-3.35,.92-5.47-1.42-4.64-4.97,.32-1.33,1.02-2.61,1.71-3.82,.69-1.22,1.84-2.24,2.3-3.52,.33-.94,.24-2.53-.36-3.16-.86-.91-2.5-1.86-3.56-1.63-1.85,.4-3.64,1.48-5.22,2.62-5.32,3.84-10.37,8.08-15.84,11.7-4.74,3.13-9.89,5.66-14.91,8.34-.93,.5-2.13,.49-3.84,.84,.01-1.76-.27-3.15,.09-4.33,.93-2.99,2.37-5.84,3.18-8.86,.58-2.15,.88-4.54,.56-6.71-.65-4.4-5.08-6.93-8.99-4.89-4.27,2.22-8.24,5.08-12.13,7.94-6.19,4.55-12.2,9.34-18.69,14.34-4.87-10.09-8-20.09-7.53-30.78,.21-4.71,2.09-9.34,3.3-14.38,3.64-.23,6.71,1.38,9.71,2.66,8.05,3.44,16.55,4.64,25.11,4.61,8.53-.03,17.06-1.01,25.58-1.64,4.26-.31,8.53-.62,12.77-1.19,6.21-.84,12.43-1.7,18.56-2.93,8.83-1.77,15.67-6.85,20.7-14.14,3.23-4.68,5.91-9.75,8.62-14.76,3.76-6.96,3.16-14.34,1.47-21.7-.24-1.03-1.01-2.04-1.77-2.84-1.84-1.94-5.72-1.17-6.31,1.36-.5,2.18-.87,4.58-.47,6.73,1.16,6.31-1.02,11.68-3.56,17.22-6.23,13.55-16.54,20.68-31.44,21.18-9.12,.31-18.26,.33-27.34,1.02-8.03,.61-15.97-.02-23.94-.48-1.36-.08-2.71-.45-4.85-.83,1.79-2.61,3.23-4.59,4.54-6.66,1.08-1.71,.8-3.73-.54-4.6-1.35-.86-2.75-.74-3.97,.2-1.13,.86-2.01,2.07-3.19,2.83-1.65,1.05-3.4,2.06-5.25,2.67-2.64,.88-4.62-.69-4.43-3.44,.25-3.67,.7-7.33,1.09-11.2,3.2-.99,6.21-1.76,9.09-2.86,3.03-1.15,4.43-3.62,3.73-5.9-.87-2.82-3.5-4.47-6.72-3.94-1.96,.32-3.85,1.04-5.79,1.5-3.5,.84-6.8,.65-9.54-2.09-.6-.6-1.25-1.19-1.98-1.6-1.35-.74-2.86-.81-3.89,.41-.66,.78-1.32,2.13-1.09,2.99,.49,1.88,1.46,3.66,2.42,5.38,.54,.96,1.46,1.71,2.36,2.73,.3,4.71-.12,9.46-.59,14.46-4.49-1.92-3.73-7.33-7.18-9.21-3.35,.7-1.75,4.16-3.56,5.44-.6-.06-1.29,.09-1.62-.19-4.94-4.2-6.71-9.72-6.52-16.02,.13-4.37,1.59-8.37,3.34-12.31,11.93-26.9,28.25-50.83,48.68-71.95,4.76-4.92,10.16-9.11,16.16-13.32,1.63,1.66,3.13,3.2,4.69,4.79,.92-.37,2.03-.45,2.42-1.02,6.72-9.73,15.68-17.26,24.45-24.97,8.58-7.54,17.17-15.04,24.85-23.54,6.15-6.81,11.49-14.2,16.41-21.9,5.98-9.38,11.81-18.87,17.56-28.4,3.39-5.62,6.43-11.44,9.78-17.08,2.03-3.43,4.27-6.75,6.6-9.98,.74-1.02,2.11-1.57,3.66-2.68,.87,5.18-.47,9.19-2.31,13.06-5.15,10.82-9.89,21.87-15.67,32.34-10.21,18.5-21.45,36.4-34.83,52.83-2.32,2.85-5.15,5.28-7.75,7.9-.8,.81-1.7,1.53-2.44,2.4-6.68,7.81-13.38,15.6-19.94,23.49-1.43,1.72-2.42,3.84-3.5,5.83-.18,.34,.12,1.14,.44,1.5,.32,.35,1.11,.71,1.45,.55,2.04-.96,4-2.07,6.35-3.32Zm-32,67.85c-4.41-.62-9.27,3.05-9.94,7.51-.59,3.92,2.91,8.46,7.16,9.27,4.8,.92,9.06-2.35,9.58-7.35,.48-4.59-2.59-8.84-6.79-9.43Zm-51.25,4.27c4.08,.12,7.51-3.32,7.45-7.48-.05-3.93-3.21-7.3-6.76-7.22-3.6,.09-6.77,3.32-7,7.13-.23,3.93,2.71,7.46,6.3,7.57Z"/>
  <path class="cls-3" d="M273.04,98.43c-14.01,9.84-28.02,19.68-42.02,29.54-7,4.93-14.07,9.75-20.94,14.85-7.1,5.27-13.8,11.12-21.04,16.18-.71,.49-1.44,.95-2.15,1.44,.01,1.12-.43,2.24-1.68,2.98-10.84,6.49-38.44,25.21-30.92,40.73,8.3-4.37,15.85-9.91,23.48-15.34,12.09-8.61,24.25-17.1,37.02-24.71,14.09-8.4,26.27-19.12,36.67-31.85,6.86-8.4,13.87-16.68,20.72-25.09,2.34-2.87,4.47-5.92,6.54-8.98,.52-.78,.47-1.95,.93-4.12-2.91,1.92-4.79,3.1-6.61,4.37Z"/>
  <path class="cls-1" d="M67.14,395.68c-1.16,1.7-2.05,3.5-3.39,4.88-3.15,3.26-7.67,3.09-10.37-.49-1.34-1.77-2.33-3.93-2.98-6.07-1.66-5.49-2.44-11.14-1.79-16.88,.64-5.66,.97-11.41,2.2-16.95,2.22-9.95,1.48-19.8,.13-29.7-.42-3.09-.88-6.17-1.33-9.35,2.76-2.27,5.49-4.05,9.14-4.62-.12,4.04-.17,7.68-.35,11.32-.14,2.82,2.37,4.94,4.98,4.71,6.49-.58,13.16-.79,19.02-4.17,3.94-2.27,7.72-4.82,11.47-7.41,2.57-1.77,4.95-3.8,7.23-5.56,2.64,.16,2.39,2.39,3.3,3.63,2.19,3,5.01,4.39,8.78,4.23,4.98-.21,9.49-1.74,13.76-4.17,2.45-1.4,4.89-2.83,7.24-4.19,.64,.57,1.27,.86,1.37,1.27,1.74,7.37,1.29,14.75-.55,21.98-.68,2.65-2.36,5.17-4.01,7.43-4.11,5.63-9.5,10.13-15.84,12.7-9.22,3.74-15.35,10.61-21.11,18.11-1.91,2.48-3.46,5.22-5.2,7.83-2.44,3.68-5.96,6.07-9.81,8.03-1.72,.87-3.39,.51-4.6-.99-3.08-3.8-5.37-8.06-6.74-12.76-1.63-5.59-.26-10.7,2.73-15.48,4.57-7.31,9.88-13.96,17.28-18.66,4.38-2.78,8.19-6.17,11.21-10.4,.87-1.22,1.21-2.56,.04-3.86-.27,0-.63-.12-.82,0-6.56,4.57-13.83,7.8-20.96,11.33-7.92,3.93-13.65,10.16-17.89,17.82-3.04,5.5-3.88,11.13-1.77,17.25,1.96,5.69,4.09,11.23,7.83,16.04,.68,.87,1.11,1.93,1.8,3.15Z"/>
  <path class="cls-1" d="M280.71,377.48c.45-1.99,.57-4.02,1.35-5.77,4.48-9.97,4.76-20.39,3.64-30.99-.3-2.83-.58-5.67-1.06-8.47-.82-4.8,.5-9.15,3.12-12.97,4.77-6.95,11.63-10.74,19.92-11.88,3.57-.49,6.73,.72,9.54,2.92,3.16,2.47,4.83,5.53,3.9,9.67-.44,1.93-.92,3.87-1.13,5.84-.19,1.71,1.18,3.51,2.87,3.74,2.24,.31,4.53,.26,6.79,.51,7.35,.82,11.35,7.46,8.35,14.32-1.1,2.52-3.12,4.68-4.94,6.83-1.09,1.28-2.49,2.39-3.94,3.26-4.35,2.61-7.06,5.47-4.18,11.05,1.4,2.7-.14,5.56-2.24,7.74-2.43,2.52-5.35,4.41-8.77,5.01-3.59,.63-6.28,2.01-8.27,5.26-2.99,4.88-7.35,4.65-11.14,2.68-4.75-2.47-9.74-4.63-13.81-8.73Z"/>
  <path class="cls-3" d="M86.11,134.52c.99-6.3,4.03-11.09,7.44-15.58,15.01-19.73,30.04-39.44,46.82-57.74,4.04-4.41,7.87-9.01,11.82-13.51,1.3-1.48,2.68-2.87,4.53-4.84,.21,1.36,.62,2.21,.36,2.64-6.89,11.14-13.69,22.35-20.85,33.31-6.43,9.83-14.38,18.44-23.21,26.13-8.86,7.72-16.99,16.01-23.66,25.71-.95,1.38-2.16,2.59-3.25,3.87Z"/>
  <path class="cls-2" d="M77.15,222.85c4.21,.59,7.27,4.85,6.79,9.43-.52,5-4.78,8.27-9.58,7.35-4.25-.81-7.75-5.35-7.16-9.27,.67-4.46,5.53-8.13,9.94-7.51Z"/>
  <path class="cls-2" d="M25.9,227.12c-3.59-.11-6.53-3.64-6.3-7.57,.23-3.81,3.4-7.04,7-7.13,3.54-.09,6.7,3.29,6.76,7.22,.06,4.16-3.37,7.6-7.45,7.48Z"/>
</svg>