<?xml version="1.0" encoding="UTF-8"?>
<svg id="Layer_1" data-name="Layer 1" xmlns="http://www.w3.org/2000/svg" viewBox="0 0 314.47 366.48">
  <defs>
    <style>
      .cls-1 {
        fill: #424039;
      }

      .cls-2 {
        fill: #23130c;
      }

      .cls-3 {
        fill: #25241f;
      }

      .cls-4 {
        fill: #f7e5b5;
      }
    </style>
  </defs>
  <g>
    <path class="cls-2" d="M2.64,220.4c1.26-1.7,3.45-1.89,5.02-.51,.82,.72,1.43,1.68,2.18,2.49,.37,.4,.58,1.22,1.61,.65-.17-1.16-.38-2.38-.51-3.62-.5-4.88-1.14-9.75-1.41-14.64-.24-4.28,.16-8.56,1.61-12.65,.52-1.46,1.25-2.93,2.2-4.15,1.56-2,3.56-2.44,5.96-1.49,1.17,.46,2.19,1.27,3.35,1.77,.62,.27,1.38,.23,2.27,.35,.04-2.23,.09-4.12,.11-6.01,.06-8.59,2.4-16.56,6.66-23.98,.86-1.5,1.9-2.94,3.09-4.18,2.73-2.84,6.12-4.47,10.06-4.83,3.77-.35,5.42,.81,6.62,4.5,.13,.4,.32,.79,.59,1.43,.94-.55,1.77-.97,2.53-1.49,3.65-2.51,7.29-5.05,10.93-7.57,9.56-6.62,20.05-9.14,31.56-7.18,4.6,.78,8.72,2.78,12.73,5.05,1.13,.64,1.1,2.35-.06,2.64-2.73,.68-4.71,2.53-6.88,4.09-11.22,8.06-20.16,18.23-27.4,29.94-4.59,7.43-8.51,15.22-11.25,23.51-4.27,12.92-5.82,26.22-4.52,39.82,.59,6.21,2.1,12.17,4.68,17.83,2.82,6.19,5.71,12.36,8.68,18.48,3.69,7.59,8.71,14.2,14.63,20.12-.21,.23-.39,.5-.47,.87-.59,2.7-.3,5.32,.07,7.95-4.29-3.59-8.24-7.55-11.81-11.88-3.75-4.54-6.92-9.45-9.5-14.72-2.64-5.4-5.1-10.89-7.7-16.31-4.2-8.73-5.81-18.02-6.09-27.6-.36-12.48,1.57-24.65,5.57-36.41,3.69-10.83,9.03-20.87,15.84-30.13,9.28-12.62,14.36-17.04,28.46-24.45,1.08-.57,2.12-1.2,3.63-2.06-.95-.51-1.42-.93-1.95-1.02-2.34-.37-4.7-.94-7.04-.89-9.11,.18-18.02,1.36-25.9,6.47-5.18,3.36-10.28,6.82-15.42,10.24-.66,.44-1.25,.99-1.94,1.36-2.36,1.29-4.32,.27-4.81-2.44-.22-1.24-.43-2.48-.74-3.7-.11-.41-.54-.74-.94-1.25-3.22,.28-5.61,1.99-7.35,4.56-4.33,6.37-7.32,13.3-8.22,21.01-.44,3.77-.95,7.56-.96,11.34-.02,3.31-2.89,5.28-6.34,3.9-1.32-.53-2.55-1.27-3.82-1.9-.82-.41-1.65-.8-2.54-1.24-1.6,2.2-1.79,4.58-2.02,6.91-.63,6.49-.43,12.96,.67,19.39,.48,2.81,.95,5.62,1.42,8.42,.19,1.12,.27,2.25-.78,3.03-1.18,.89-2.44,.57-3.57-.07-.95-.55-1.81-1.26-2.68-1.95-1.22-.98-2.41-2.01-3.95-3.31-.28,1.07-.62,1.78-.62,2.5,.03,7.13,.4,14.23,1.84,21.24,1.1,5.32,2.99,10.36,5.67,15.05,2.75,4.8,5.85,9.41,9.26,14.85,.45,.19,2.01,.6,3.28,1.45,1.15,.77,2,2.01,2.93,3.08,8.42,9.73,17.71,18.53,28.11,26.11,3.57,2.6,7.34,4.95,11.14,7.23,6.89,4.12,13.84,8.16,20.78,12.2-.04,.28-.01,.59,.11,.93,.61,1.65,1.69,3.2,2.35,4.85-1.05-.38-2.08-.8-3.11-1.22-3.22-1.31-6.51-2.49-9.65-3.97-22.25-10.49-41.44-24.92-56.75-44.3-.48-.61-.97-1.33-1.62-1.67-1.92-.98-3.15-2.61-4.29-4.32-2.02-3.03-4-6.08-5.94-9.16C3.44,258.88,.34,246.91,.02,234.15c-.09-3.49,.1-6.98,1.04-10.36,.33-1.19,.85-2.4,1.58-3.39Z"/>
    <path class="cls-1" d="M94.92,331.72c-2.94-5.1-2.9-10.06-3.37-14.88-.26-2.7-1.18-4.66-3.33-6.41-4.67-3.79-8.92-8.04-12.77-12.7-3.75-4.54-6.92-9.45-9.5-14.72-2.64-5.4-5.1-10.89-7.7-16.31-4.2-8.73-5.81-18.02-6.09-27.6-.36-12.48,1.57-24.65,5.57-36.41,3.69-10.83,9.03-20.87,15.84-30.13,9.28-12.62,14.36-17.04,28.46-24.45,1.08-.57,2.12-1.2,3.63-2.06-.95-.51-1.42-.93-1.95-1.02-2.34-.37-4.7-.94-7.04-.89-9.11,.18-18.02,1.36-25.9,6.47-5.18,3.36-10.28,6.82-15.42,10.24-.66,.44-1.25,.99-1.94,1.36-2.36,1.29-4.31,.27-4.81-2.44-.22-1.24-.43-2.48-.74-3.7-.11-.41-.54-.74-.94-1.25-3.22,.28-5.61,1.99-7.35,4.56-4.33,6.37-7.32,13.3-8.22,21.01-.44,3.77-.95,7.56-.96,11.34-.02,3.31-2.89,5.28-6.34,3.9-1.32-.53-2.55-1.27-3.82-1.9-.82-.41-1.65-.8-2.54-1.24-1.6,2.2-1.79,4.58-2.02,6.91-.63,6.49-.43,12.96,.67,19.39,.48,2.81,.95,5.62,1.42,8.42,.19,1.12,.27,2.25-.78,3.03-1.18,.89-2.44,.57-3.57-.07-.95-.55-1.81-1.26-2.67-1.95-1.22-.98-2.41-2.01-3.95-3.31-.28,1.07-.62,1.78-.62,2.5,.03,7.13,.4,14.23,1.84,21.24,1.1,5.32,2.99,10.36,5.67,15.05,2.75,4.8,5.85,9.41,9.26,14.85,.45,.19,2.01,.6,3.28,1.45,1.15,.77,2,2.01,2.93,3.08,8.42,9.73,17.71,18.53,28.11,26.11,3.57,2.6,7.34,4.95,11.14,7.23,8.01,4.79,16.09,9.46,24.14,14.17,.51,.3,1.06,.51,2.35,1.13Z"/>
  </g>
  <path class="cls-1" d="M108.1,243.68c4.87-7.26,10.57-13.83,16.54-20.18,7.16-7.61,14.36-15.19,21.61-22.71,6.77-7.02,12.4-14.78,16.18-23.82,.09-.22,.39-.35,.69-.62,1.46,2.17,2,4.66,2.87,7.01,1.37,3.71,2.7,7.44,4.12,11.13,.45,1.17,1.07,2.3,1.76,3.35,.84,1.27,2.17,1.66,3.28,1.14,1.18-.56,1.69-1.77,1.16-3.23-.59-1.63-1.29-3.24-2.03-4.81-1.76-3.71-3.58-7.4-5.43-11.21,1.79-2.82,1.38-5.74,.73-8.74-.71-3.24-1.5-6.47-1.32-9.85,.1-1.83,.62-3.35,1.83-4.74,2.4-2.74,4.58-5.68,7.09-8.31,5.57-5.84,8.48-12.83,9.8-20.69,.96-5.69,.62-11.34,.1-17.01,0-.02-.01-.04-.02-.06-.04-.64-.12-1.27-.27-1.88-.01-.18-.04-.35-.06-.52,1.03-.14,1.99-.58,2.9-1.18,.31-.21,.55-.84,.48-1.21-.07-.36-.55-.89-.9-.93-5.59-.59-10.02-3.7-14.48-6.7-.97-.65-2.14-1.31-2.32-3.08,.87,.15,1.62,.23,2.34,.42,3.99,1.01,7.95,2.11,11.96,3.06,2.15,.51,4.35,.82,6.54,1.13,1.01,.14,1.9-.64,1.96-1.58,.07-.94-.51-1.56-1.31-1.73-5.94-1.28-11.12-4.52-16.78-6.54-2.22-.79-4.28-2.04-6.36-3.18-.63-.34-1.09-1-1.83-1.71,.92-.58,1.55-1.04,2.22-1.39,3.82-1.99,7.97-3.05,12.07-4.24,1.56-.45,3.01-.59,4.57,.26,1.76,.95,3.44,.38,4.63-1.18,2.33-3.07,5.45-5.27,8.23-7.85,5.57-5.16,11.05-10.43,16.61-15.6,1.27-1.18,2.7-2.18,4.11-3.18,.3-.21,.83-.11,1.5-.17-.37,.62-.52,1.05-.82,1.35-4.48,4.42-6.67,9.96-7.54,16.04-.67,4.69-1.18,9.42-1.45,14.15-.2,3.57,.86,6.88,3.37,9.61,1.83,2,3.82,3.82,6.27,5.02,2.84,1.39,5.71,2.74,8.61,3.98,3.63,1.56,7.17,3.25,10.42,5.12,.22,1.31-.5,1.73-1.15,2.15-2.93,1.89-5.87,3.75-8.8,5.62-.93,.6-1.87,1.19-2.77,1.83-4.43,3.15-6.08,7.35-5.39,12.78,1.15,8.98,5.03,16.58,11.12,23.1,1.7,1.82,3.73,3.55,5.94,4.64,4.99,2.45,8.62,6.29,12.09,10.44,2.03,2.43,4.12,4.8,6.34,7.05,.97,.99,2.22,1.9,3.51,2.31,1.47,.47,2.49,1.29,3.4,2.41,4.18,5.17,8.34,10.35,12.53,15.51,.79,.98,1.55,2.02,2.52,2.8,1.49,1.2,3.65,.77,4.45-.95,.65-1.41,1.03-2.98,1.31-4.52,.44-2.48,.7-5,1.11-8.09,1.06,1.35,1.26,2.48,1.51,3.55,.65,2.77,1.28,5.55,1.87,8.34-.55,.88-1.13,1.75-1.73,2.6-.05-.13-.11-.26-.19-.39-1.09-.18-1.38,.58-1.69,1.29-1.91,4.43-4.89,8.12-8.09,11.64-.6,.66-1.39,1.15-2.39,1.97-.34-.88-.58-1.41-.75-1.96-1.16-3.78-2.26-7.58-3.49-11.33-.39-1.18-1.07-2.29-1.77-3.33-.66-.98-2.02-1.36-2.94-.98-.98,.4-1.6,1.22-1.5,2.21,.29,2.9-.88,5.61-.98,8.46-.02,.56-.35,1.11-.7,2.13-.67-.77-1.12-1.15-1.38-1.63-4.12-7.49-8.18-15.01-12.35-22.48-.83-1.49-1.97-2.85-3.17-4.06-.4-.41-1.5-.4-2.17-.2-.83,.25-1.03,1.17-.87,1.98,.2,1.08,.61,2.13,.78,3.22,.08,.51-.19,1.07-.42,2.21-.97-1.15-1.61-1.81-2.13-2.55-2.16-3.12-4.21-6.34-6.46-9.39-1.01-1.37-2.39-2.48-3.68-3.62-.26-.23-1.05-.23-1.29,0-.4,.38-.88,1.12-.75,1.54,.39,1.35,.85,2.75,1.62,3.91,3.4,5.16,6.9,10.24,10.38,15.35,.27,.39,.57,.76,.88,1.12,2.32,2.71,3.17,2.71,6.34-.19,2.43,3.54,4.19,7.42,6.44,11,2.27,3.61,4.47,7.27,6.77,11.03-5.28,10.29-6.65,21.69-9.07,32.8-2.6,11.92-4.11,24.01-5.43,36.13-.17,1.57-.23,3.16-.25,4.74-.12,11.08-.26,22.17-.29,33.25,0,2.03,.24,4.12,.75,6.08,.68,2.62,1.98,4.98,5.06,6.81-5.52,.23-10.2,.43-14.87,.61-.13,0-.26-.15-.71-.42-.33-2.07-.79-4.37-1.06-6.7-.81-7.1-2.03-14.1-4.63-20.8-.66-1.69-.47-3.41-.36-5.16,.3-4.75,.36-9.47-.7-14.18-1.14-5.02-3.17-9.6-6.28-13.71-1.05-1.39-2.18-2.72-3.17-4.15-.62-.89-1.13-1.88-1.54-2.89-.83-2.05-1.68-4.11-2.3-6.23-1.68-5.74-4.78-10.68-8.5-15.25-1.63-2-2.85-4.18-3.86-6.5-.63-1.45-1.23-2.92-1.86-4.37-1.84-4.23-3.35-8.52-3.39-13.24-.02-2.55-.78-3.78-1.57-3.45-1.52,.64-1.02,2.14-1.26,3.3-1.61,7.96,.74,15.37,3.37,22.69,.57,1.58,1.81,2.94,2.83,4.34,1.77,2.43,3.65,4.78,5.42,7.21,.53,.72,.83,1.6,1.21,2.34-.83,.78-1.36,.22-1.88-.03-7.02-3.33-14.3-3.81-21.78-1.97-4.17,1.03-8.17,2.55-11.9,4.69-1.5,.86-2.9,1.93-4.23,3.04-1.24,1.04-1.88,2.43-1.81,4.35,.65-.12,1.21-.06,1.43-.3,2-2.23,4.65-3.24,7.39-4.07,6.61-2,13.4-2.38,20.22-1.8,4.51,.39,8.53,2.17,11.9,5.36,4.17,3.94,7.89,8.24,10.93,13.1,4.12,6.58,5.25,13.85,4.38,21.45-.21,1.84-.84,3.76-1.75,5.38-3.71,6.62-7.34,13.32-12.38,19.09-.42,.48-.83,.96-1.28,1.41-4.77,4.85-9.57,9.67-14.31,14.56-.98,1.01-1.87,2.15-2.58,3.36-.78,1.33,.36,3.04,1.91,3.03,1.8-.02,3.44-.61,4.78-1.81,1.65-1.48,3.29-2.97,4.81-4.59,1.3-1.38,2.73-2.01,4.63-1.83,2.99,.27,6.01,.32,9,.59,7.12,.63,14.23,.63,21.35,.04,3.47-.29,6.95-.44,10.43-.52,3.05-.08,5.96,.69,8.76,1.85,2.31,.96,4.09,2.55,4.83,4.93,.75,2.4,1.23,4.89,1.69,7.36,.08,.42-.56,.96-1.01,1.69-1.26-1.15-2.26-2.14-3.34-3.03-1.83-1.5-3.69-2.98-5.6-4.38-1.5-1.1-3.23-1.29-4.98-.76-.53,.16-.96,.69-1.82,1.34,4.83,.82,7.31,4.06,10.01,7.13q-2.46,1.45-5.75,1.81c-2.79-1.86-4.14-5.6-7.84-6.43-.22-.05-.53,.26-1.07,.56,1.03,1.52,2.04,3.01,3.33,4.92-1.19,0-1.97,.13-2.69-.02-8.89-1.9-17.9-2.19-26.92-1.62-6.31,.4-12.6,1.19-18.87,2.03-13.04,1.77-26.12,2.96-39.29,2.23-6-.33-12.01-.78-17.96-1.56-7.09-.94-13.94-3.02-20.43-6-2.99-1.37-5.81-3.25-8.44-5.25-8.03-6.11-14.53-13.62-19.41-22.47-1.76-3.2-3.16-6.54-3.41-10.29-.17-2.51-.96-4.92-1.01-7.49-.28-13.65,2.42-26.77,7.15-39.47,3.15-8.46,6.63-16.79,11.7-24.35Z"/>
  <path class="cls-2" d="M94.7,341.45c1.98,.8,3.73,2.06,5.24,3.93,2.1,2.6,4.89,4.45,7.95,5.89,1.42,.66,2.72,1.61,3.99,2.54,3.98,2.95,8.33,5.15,13.01,6.75,9.04,3.1,18.25,5.19,27.87,5.27,4.27,.04,8.53,.46,12.8,.59,10.96,.34,21.81-.84,32.63-2.37,12.08-1.71,24.19-3.03,36.43-2.29,3.34,.2,6.54,.66,9.66,2.08,5.07,2.31,10.39,2.74,15.74,.92,4.17-1.42,8.59-2.33,11.94-5.54,.11-.11,.22-.27,.36-.31,5.37-1.5,9.4-5.86,14.95-7.01,3.11-.65,4.89-2.73,5.83-5.65,.19-.6,.47-1.24,.42-1.83-.53-5.57-1.24-10.98-6.44-14.63-3.35-2.35-6.39-5.17-9.45-7.92-3.07-2.76-4.52-6.31-5.09-10.42-1.69-12.25-2.88-24.51-2.64-36.89,.1-5.38,0-10.77,.1-16.15,.08-3.79,.5-7.58,.53-11.38,.07-8.23-.01-16.47-.03-24.7,0-.32-.02-.63-.03-.95-.09-2.76-.56-5.36-3.18-7.06,.37-3.19,.67-5.85,1.05-9.08,.62,.86,1.12,1.27,1.24,1.77,.47,2,.82,4.02,1.19,6.05,.26,1.4,.34,2.84,.74,4.2,.94,3.17,4.05,4.15,6.75,2.19,.51-.37,.98-.81,1.38-1.3,3.95-4.8,7.26-9.98,9.42-15.85,.54-1.46,1.23-2.95,.37-4.51-1.09-.18-1.38,.58-1.69,1.29-1.91,4.43-4.89,8.12-8.09,11.64-.6,.66-1.39,1.15-2.39,1.97-.34-.88-.58-1.41-.75-1.96-1.16-3.78-2.25-7.58-3.49-11.33-.39-1.18-1.07-2.29-1.77-3.33-.66-.98-2.02-1.36-2.94-.98-.98,.4-1.6,1.22-1.5,2.21,.29,2.9-.88,5.61-.98,8.46-.02,.56-.35,1.11-.7,2.13-.67-.77-1.12-1.15-1.38-1.63-4.12-7.49-8.18-15.01-12.35-22.48-.83-1.49-1.97-2.85-3.17-4.06-.4-.41-1.5-.4-2.17-.2-.83,.25-1.03,1.17-.87,1.98,.2,1.08,.61,2.13,.78,3.22,.08,.51-.19,1.07-.43,2.21-.97-1.15-1.61-1.81-2.13-2.55-2.16-3.12-4.21-6.34-6.46-9.39-1.01-1.37-2.39-2.48-3.68-3.62-.26-.23-1.05-.23-1.29,0-.4,.38-.88,1.12-.75,1.54,.39,1.35,.85,2.75,1.62,3.91,3.4,5.16,6.9,10.24,10.38,15.35,.27,.39,.57,.76,.88,1.12,2.32,2.71,3.17,2.71,6.34-.19,2.43,3.54,4.19,7.42,6.44,11,2.27,3.61,4.47,7.27,6.77,11.03-5.28,10.29-6.65,21.69-9.07,32.8-2.6,11.92-4.11,24.01-5.43,36.13-.17,1.57-.23,3.16-.25,4.74-.12,11.08-.26,22.17-.29,33.25,0,2.03,.24,4.12,.75,6.08,.68,2.62,1.98,4.98,5.06,6.81-5.52,.23-10.2,.43-14.87,.61-.13,0-.26-.15-.71-.42-.33-2.07-.79-4.37-1.06-6.7-.81-7.1-2.03-14.1-4.63-20.8-.66-1.69-.47-3.41-.36-5.16,.3-4.75,.36-9.47-.7-14.18-1.14-5.02-3.17-9.6-6.28-13.71-1.05-1.39-2.18-2.72-3.17-4.15-.62-.89-1.13-1.88-1.54-2.89-.83-2.05-1.68-4.11-2.3-6.23-1.68-5.74-4.78-10.68-8.5-15.25-1.63-2-2.85-4.18-3.86-6.5-.63-1.45-1.23-2.92-1.86-4.37-1.84-4.23-3.35-8.52-3.39-13.24-.02-2.55-.78-3.78-1.57-3.45-1.52,.64-1.02,2.14-1.26,3.3-1.61,7.96,.74,15.37,3.37,22.69,.57,1.58,1.81,2.94,2.83,4.34,1.77,2.43,3.65,4.78,5.42,7.21,.53,.72,.83,1.6,1.21,2.34-.83,.78-1.36,.22-1.88-.03-7.02-3.33-14.3-3.81-21.78-1.97-4.17,1.03-8.17,2.55-11.9,4.68-1.5,.86-2.9,1.93-4.23,3.04-1.24,1.04-1.88,2.43-1.81,4.35,.65-.12,1.21-.06,1.43-.3,2-2.23,4.65-3.24,7.39-4.07,6.61-2,13.4-2.38,20.22-1.8,4.51,.39,8.53,2.17,11.9,5.36,4.17,3.94,7.89,8.24,10.93,13.1,4.12,6.58,5.25,13.85,4.38,21.45-.21,1.84-.84,3.76-1.75,5.38-3.71,6.62-7.34,13.32-12.38,19.09-.42,.48-.83,.96-1.28,1.41-4.77,4.85-9.57,9.67-14.31,14.56-.98,1.01-1.87,2.15-2.58,3.36-.78,1.33,.36,3.04,1.91,3.03,1.8-.02,3.44-.61,4.78-1.81,1.65-1.48,3.29-2.97,4.81-4.59,1.3-1.38,2.73-2.01,4.63-1.83,2.99,.27,6.01,.32,9,.59,7.12,.63,14.23,.63,21.35,.04,3.47-.29,6.95-.44,10.43-.52,3.05-.08,5.96,.69,8.76,1.85,2.31,.96,4.09,2.54,4.83,4.93,.75,2.4,1.23,4.89,1.69,7.36,.08,.42-.56,.96-1.01,1.69-1.26-1.15-2.26-2.14-3.34-3.03-1.83-1.5-3.69-2.98-5.6-4.38-1.5-1.1-3.23-1.29-4.98-.76-.53,.16-.96,.69-1.82,1.34,4.83,.82,7.31,4.06,10.01,7.13q-2.46,1.45-5.75,1.81c-2.79-1.86-4.14-5.6-7.84-6.43-.22-.05-.53,.26-1.07,.56,1.03,1.52,2.04,3.01,3.33,4.92-1.19,0-1.97,.13-2.69-.02-8.89-1.9-17.9-2.19-26.92-1.62-6.31,.4-12.6,1.19-18.87,2.03-13.04,1.77-26.12,2.96-39.29,2.23-6-.33-12.01-.78-17.96-1.56-7.09-.94-13.94-3.02-20.43-6-2.99-1.37-5.81-3.25-8.44-5.25-8.03-6.11-14.53-13.62-19.41-22.47-1.76-3.2-3.16-6.54-3.41-10.29-.17-2.51-.96-4.92-1.01-7.49-.28-13.65,2.42-26.77,7.15-39.47,3.15-8.46,6.63-16.79,11.7-24.35,4.87-7.26,10.57-13.83,16.54-20.18,7.16-7.61,14.36-15.19,21.61-22.71,6.77-7.02,12.4-14.78,16.18-23.82,.09-.22,.39-.35,.69-.62,1.46,2.17,2,4.66,2.87,7.01,1.37,3.71,2.7,7.44,4.12,11.13,.45,1.17,1.07,2.3,1.76,3.35,.84,1.27,2.17,1.66,3.28,1.14,1.18-.56,1.69-1.77,1.16-3.23-.59-1.63-1.29-3.24-2.03-4.81-1.76-3.71-3.58-7.4-5.42-11.21,1.79-2.81,1.38-5.74,.73-8.74-.71-3.24-1.5-6.47-1.32-9.85,.1-1.83,.62-3.35,1.83-4.74,2.4-2.74,4.58-5.68,7.09-8.31,5.57-5.84,8.48-12.83,9.8-20.69,.96-5.69,.62-11.34,.1-17.01-.04-.42-.74-.91-1.24-1.1-.22-.08-.88,.44-1.02,.81-.31,.88-.54,1.82-.61,2.75-.61,8.55-3.97,16.26-7.5,23.87-1.05,2.26-2.71,4.27-4.24,6.28-1.72,2.27-3.58,4.44-5.41,6.62-4.16,4.96-6.18,10.63-5.35,17.09,.35,2.69-.22,4.99-1.47,7.27-2.3,4.18-5.01,8.09-8.28,11.55-7.49,7.95-15.04,15.84-22.6,23.73-4.93,5.15-9.88,10.26-14.85,15.37-10.76,11.06-18.53,23.97-24.2,38.28-4.53,11.43-7.23,23.26-8.5,35.43-.33,3.13-.08,6.33-.12,9.49,0,.71-.06,1.46-.1,2.3,.04,.09,.07,.17,.11,.27,.38,.76,.24,1.47-.14,2.03,.76,2.9,2.35,5.62,3.26,8.47,.19,.6,.1,1.11-.14,1.51,.14,.31,.3,.6,.43,.94,1.66,4.55,2.87,9.36,6.99,13.57-.09-.02-.15-.03-.24-.04,1.19,1.35,2.29,2.72,2.79,4.55Zm138.42-5.65c-7.59,1.38-14.99,1.28-22.63,1.29,1.44-1.43,2.9-2.83,4.3-4.29,1.42-1.48,2.85-2.96,4.13-4.56,1.38-1.72,2.65-3.54,3.88-5.37,1.14-1.7,2.14-3.5,3.27-5.21,1.08-1.63,1.84-3.52,4.17-5.34,.7,8.27,2.28,15.73,2.87,23.47Zm45.11,3.51c-.42-.22-.9-.37-1.24-.66-3.69-3.13-8.01-5.02-12.57-6.45-1.81-.57-3.57-1.37-5.41-1.74-3.11-.61-4.56-2.65-5.19-5.46-.31-1.37-.4-2.82-.41-4.23-.04-4.27,.03-8.54,0-12.81-.11-16.65,1.61-33.14,4.89-49.44,1.87-9.29,4.14-18.5,6.3-27.73,.39-1.67,1.07-3.27,1.61-4.9,.15,.02,.3,.05,.45,.07,0,.73,.08,1.47-.01,2.19-1.23,9.74-1.1,19.56-1.48,29.34-.32,8.21-.25,16.45-.08,24.66,.13,6.31,.57,12.63,1.09,18.92,.35,4.25,1.06,8.46,1.62,12.69,.48,3.69,1.91,6.95,4.2,9.91,2.84,3.67,6.2,6.78,10.03,9.32,4.03,2.67,5.87,6.49,6.48,11.07,.1,.72-.04,1.67-.47,2.2-.56,.68-1.47,1.24-2.72,.44-.52-2.1-1.13-4.38-1.64-6.67-.89-3.99-4-5.87-7.21-7.6-.66-.36-1.55-.22-1.82,.76,1.24,1.4,2.52,2.72,3.63,4.17,.35,.46,1.02,1.29-.04,1.94Zm-9.32,6.35c-.83-2.94-2.79-5.15-5.09-7.14,.33-.19,.47-.35,.59-.33,4.21,.69,7.57,3.01,10.59,5.82,.88,.82,1.46,2.05,1.94,3.19,.69,1.66,.27,3.05-1.19,4.2-1.35,1.06-2.73,2.12-4.64,2.51-.75-2.82-1.43-5.55-2.2-8.25Z"/>
  <path class="cls-2" d="M200.16,62c3.97-3.86,7.96-7.71,11.81-11.7,4.15-4.3,8.88-6.86,15.09-6.74,6.5,.12,12.91-1.04,19.27-2.43,2.66-.59,4.44-1.8,5.87-4.18,3.25-5.42,5.81-11.23,9.45-16.43,1.05-1.5,1.52-3.46,2.05-5.27,.58-1.97,.92-4,1.36-6.01,.65-3,2.1-5.62,3.93-8.03,1.06-1.4,2.25-1.61,3.72-.47,2.36,1.84,4.73,3.74,6.81,5.88,2.64,2.72,4.92,5.8,7.52,8.56,2.8,2.97,5.21,6.38,8.96,8.26,2.45,4.8,3.18,9.92,3.1,15.2-.03,1.94-.35,3.71-1.67,5.3-.65,.79-.94,1.95-1.17,3-1.09,4.78-1.95,9.62-3.19,14.36-2.01,7.7-3.06,15.51-3.37,23.44-.06,1.57-.41,3.12-.54,4.69-.1,1.24-.31,2.55-.07,3.74,2.65,13.2,7,25.59,16.22,35.87,4.74,5.28,7.79,11.67,8.66,18.72,.66,5.31,.51,10.74,.46,16.11-.06,6.17-2.23,11.77-5.43,16.97-.53,.86-1.53,1.43-2.29,2.11-.95-.71-1.61-1.21-2.38-1.79-.98,5.59-2.8,10.65-5.01,15.57-1.21,2.7-2.68,3.81-4.49,3.44-2.2-.44-2.97-2.11-3.38-4.09-.61-2.94-1.28-5.88-1.97-8.8-.25-1.07-.45-2.2-1.51-3.55-.41,3.09-.67,5.61-1.11,8.09-.27,1.54-.65,3.11-1.31,4.52-.79,1.71-2.96,2.15-4.45,.95-.97-.78-1.72-1.82-2.52-2.8-4.19-5.16-8.35-10.34-12.53-15.51-.91-1.12-1.93-1.94-3.4-2.41-1.29-.41-2.54-1.32-3.51-2.31-2.21-2.25-4.31-4.63-6.34-7.05-3.46-4.15-7.09-7.99-12.09-10.44-2.21-1.09-4.24-2.81-5.94-4.64-6.09-6.52-9.98-14.12-11.12-23.1-.69-5.43,.97-9.63,5.39-12.78,.9-.64,1.84-1.23,2.77-1.83,2.93-1.88,5.88-3.73,8.8-5.62,.65-.42,1.37-.84,1.15-2.15-3.25-1.86-6.79-3.56-10.42-5.12-2.91-1.25-5.78-2.59-8.61-3.98-2.45-1.2-4.43-3.02-6.27-5.02-2.5-2.73-3.57-6.04-3.37-9.61,.27-4.73,.78-9.46,1.45-14.15,.86-6.08,3.06-11.61,7.54-16.04,.3-.29,.45-.73,.82-1.35-.67,.06-1.2-.04-1.5,.17-1.41,1.01-2.85,2.01-4.11,3.18-5.56,5.17-11.04,10.44-16.61,15.6-2.78,2.58-5.9,4.78-8.23,7.85-1.18,1.56-2.87,2.14-4.63,1.18-1.56-.85-3.01-.71-4.57-.26-4.1,1.19-8.25,2.25-12.07,4.24-.68,.35-1.3,.81-2.22,1.39,.75,.71,1.2,1.37,1.83,1.71,2.08,1.13,4.14,2.38,6.36,3.18,5.66,2.02,10.83,5.26,16.78,6.54,.8,.17,1.38,.78,1.31,1.73-.07,.94-.95,1.73-1.96,1.58-2.19-.31-4.39-.62-6.54-1.13-4-.95-7.97-2.04-11.95-3.06-.72-.18-1.47-.27-2.34-.42,.17,1.77,1.35,2.43,2.32,3.08,4.46,3,8.88,6.1,14.48,6.7,.35,.04,.83,.56,.9,.93,.07,.37-.17,1.01-.48,1.21-1.49,.99-3.12,1.54-4.94,1.05-2.75-.74-5.53-1.37-8.24-2.25-5.36-1.74-10.08-4.53-13.89-8.77-.94-1.05-2-1.98-3.01-2.97-1.24,.16-2.32,.41-3.4,.42-1.3,0-2.48-1.17-2.38-2.47,.08-1.06,.35-2.21,.9-3.09,1.01-1.6,2.29-3.02,3.46-4.52,2.52-3.23,5.77-5.36,9.7-6.48,1.47-.42,2.93-.9,4.75-1.46-2.11-2.84-4.01-5.34-5.84-7.89-3.45-4.82-6.26-9.9-6.37-16.06-.01-.77-.38-1.53-.53-2.3-.45-2.3,.74-3.76,2.98-3.67,.63,.03,1.26,.13,1.87,.29,9.79,2.63,18.68,6.9,25.9,14.23,1.54,1.57,3.19,3.03,5.2,4.92,1.72-1.47,3.1-2.52,4.34-3.72Zm45.67,88.14c2.11,.28,3.14,1.87,4,3.58,1.08,2.16,2.49,4.05,4.25,5.67,.68,.63,1.47,1.42,2.3,1.56,3.29,.53,4.89,3.31,7.24,5.08,.12,.09,.26,.22,.3,.36,1.44,4.52,5,7.57,7.84,11.1,2.97,3.7,6.13,7.26,9.22,10.86,.4,.46,.89,.85,1.54,1.46,.45-.63,.97-1.05,1.09-1.57,1.11-4.77,2.43-9.51,2.15-14.49-.02-.31,0-.63,.04-.95,.17-1.57,1.73-2.35,3.18-1.63,1.36,.67,2.27,1.73,2.73,3.13,.94,2.85,1.83,5.72,2.73,8.59,.45,1.45,.88,2.9,1.51,4.97,.6-1.12,1-1.62,1.14-2.17,.88-3.69,1.81-7.38,2.52-11.1,1.01-5.3,.32-10.39-2.25-15.19-.36-.66-.59-1.39-.85-2.01,.92-1.02,1.59-.55,2.15,.01,2.92,2.9,4.27,6.59,5.21,10.49,.37,1.54,.71,3.08,1.15,4.59,.16,.57,.57,1.07,.82,1.52,1.07,.01,1.17-.73,1.28-1.24,.59-2.78,1.39-5.56,1.55-8.37,.25-4.26,.06-8.54,0-12.81-.05-3.07-.94-5.91-2.44-8.59-2.02-3.58-3.95-7.22-5.97-10.8-.54-.96-1.26-1.82-1.92-2.71-2.45-3.29-5.03-6.49-7.33-9.89-1.04-1.54-1.73-3.39-2.22-5.2-1.16-4.27-2.16-8.59-3.12-12.92-.37-1.69-.59-3.44-.64-5.17-.24-8.38-.61-16.78,.69-25.12,.49-3.12,.89-6.27,1.61-9.34,1.84-7.86,3.83-15.67,5.76-23.51,.45-1.83,.87-3.67,1.31-5.56-1.03-1.17-1.95-2.21-3.11-3.51-.64,.69-1.29,1.14-1.58,1.76-.66,1.43-1.24,2.91-1.66,4.42-1.81,6.55-3.52,13.13-5.33,19.69-1.6,5.81-5.97,9.14-10.9,11.91-.5,.28-1.31,.4-1.82,.21-.66-.25-1.36-.8-1.68-1.42-.21-.41,.03-1.3,.38-1.7,.6-.7,1.41-1.25,2.2-1.77,4.13-2.69,7.06-6.46,8.84-10.92,3.16-7.93,5.93-16.01,8.87-24.03-2.23-3.5-4.34-6.8-6.64-10.41-.78,.68-1.39,1.1-1.86,1.64-1.59,1.83-3.55,3.12-5.7,4.19-3.88,1.95-4.28,2.01-8.75,.97-3.69,7.06-7.4,14.17-11.4,21.84-1.21,.44-2.94,1.22-4.76,1.69-5.68,1.49-11.47,2.4-17.32,2.71-2.39,.13-4.24,.98-5.95,2.51-2.65,2.38-4.62,5.19-5.69,8.61-2.29,7.32-3.05,14.86-3.13,22.48-.03,3.07,1.42,5.45,3.67,7.41,2.42,2.1,5.23,3.54,8.12,4.87,4.17,1.91,8.33,3.85,12.47,5.82,1.14,.54,2.25,1.18,3.28,1.9,2.58,1.82,2.88,4.16,.71,6.4-1.09,1.12-2.41,2.05-3.72,2.92-3.03,2.01-6.05,4.06-9.2,5.88-3.73,2.15-5.11,5.23-4.85,9.48,.29,4.71,1.8,8.96,3.96,13.06,.22,.42,.48,.83,.81,1.16,2.57,2.57,5.14,5.16,7.77,7.67,.67,.64,1.58,1.02,2.68,1.72,1.05-.69,1.83-1.2,2.71-1.77Zm-62.37-74.56c2.22,.1,3.88-.74,5.27-2.53,1.52-1.95,3.31-3.69,4.97-5.5-6.5-6.32-19.94-12.86-30.14-14.7,.07,.65,.02,1.27,.22,1.78,1.17,2.95,2.83,5.63,4.91,8.02,2.06,2.38,4.25,4.65,6.32,7.01,1.53,1.75,2.97,3.59,4.89,5.92,1.05,0,2.31-.04,3.56,0Z"/>
  <path class="cls-3" d="M266.21,225.89c-.54,1.63-1.22,3.23-1.61,4.9-2.15,9.23-4.42,18.44-6.3,27.73-3.29,16.3-5.01,32.79-4.89,49.44,.03,4.27-.05,8.54,0,12.81,.01,1.41,.11,2.86,.41,4.23,.62,2.81,2.08,4.85,5.19,5.46,1.85,.36,3.6,1.17,5.41,1.74,4.56,1.43,8.88,3.32,12.57,6.45,.35,.3,.82,.44,1.24,.66,1.06-.65,.4-1.48,.04-1.94-1.11-1.45-2.39-2.77-3.63-4.17,.27-.98,1.16-1.12,1.82-.76,3.22,1.73,6.32,3.61,7.21,7.6,.51,2.3,1.12,4.57,1.64,6.67,1.25,.79,2.17,.24,2.72-.44,.43-.52,.56-1.48,.47-2.2-.61-4.58-2.45-8.4-6.48-11.07-3.83-2.54-7.19-5.65-10.03-9.32-2.29-2.96-3.72-6.22-4.2-9.91-.55-4.23-1.27-8.44-1.62-12.69-.52-6.3-.96-12.61-1.09-18.92-.17-8.22-.25-16.45,.08-24.66,.38-9.78,.26-19.6,1.48-29.34,.09-.72,.01-1.46,.01-2.19-.15-.02-.3-.05-.45-.07Z"/>
  <path class="cls-3" d="M271.11,353.9c1.91-.4,3.29-1.46,4.64-2.51,1.46-1.14,1.88-2.54,1.19-4.2-.47-1.14-1.05-2.37-1.94-3.19-3.03-2.81-6.38-5.13-10.59-5.82-.12-.02-.26,.14-.59,.33,2.3,1.99,4.25,4.2,5.09,7.14,.77,2.7,1.45,5.43,2.2,8.25Z"/>
  <path class="cls-4" d="M240.44,150.19c-2.64-2.51-5.2-5.09-7.77-7.67-.33-.33-.59-.75-.81-1.16-2.15-4.1-3.67-8.35-3.96-13.06-.26-4.25,1.12-7.33,4.85-9.48,3.15-1.82,6.17-3.86,9.2-5.88,1.31-.87,2.63-1.8,3.72-2.92,2.17-2.23,1.87-4.58-.71-6.4-1.03-.73-2.14-1.36-3.28-1.9-4.14-1.97-8.3-3.91-12.47-5.82-2.89-1.32-5.7-2.77-8.12-4.87-2.25-1.96-3.7-4.34-3.67-7.41,.08-7.63,.85-15.16,3.13-22.48,1.07-3.42,3.04-6.22,5.69-8.61,1.71-1.53,3.56-2.39,5.95-2.51,5.85-.31,11.64-1.21,17.32-2.71,1.81-.48,3.54-1.25,4.76-1.69,4-7.67,7.71-14.78,11.4-21.84,4.48,1.04,4.87,.98,8.75-.97,2.14-1.08,4.11-2.37,5.7-4.19,.47-.54,1.08-.96,1.86-1.64,2.31,3.61,4.41,6.91,6.64,10.41-2.93,8.02-5.71,16.1-8.87,24.03-1.78,4.46-4.72,8.23-8.84,10.92-.79,.51-1.6,1.06-2.2,1.77-.35,.41-.59,1.29-.38,1.7,.32,.61,1.02,1.16,1.68,1.42,.51,.2,1.32,.08,1.82-.21,4.94-2.76,9.3-6.1,10.9-11.91,1.8-6.55,3.51-13.14,5.33-19.69,.42-1.51,1.01-2.99,1.66-4.42,.28-.62,.94-1.07,1.58-1.76,1.15,1.31,2.08,2.35,3.11,3.51-.45,1.89-.86,3.73-1.31,5.56-1.93,7.83-3.92,15.65-5.76,23.51-.72,3.07-1.12,6.22-1.61,9.34-1.3,8.34-.92,16.74-.69,25.12,.05,1.73,.26,3.48,.64,5.17,.95,4.32,1.95,8.64,3.12,12.92,.49,1.81,1.18,3.66,2.22,5.2,2.3,3.4,4.87,6.6,7.33,9.89,.66,.89,1.38,1.75,1.92,2.71,2.02,3.58,3.96,7.21,5.97,10.8,1.51,2.68,2.39,5.52,2.44,8.59,.07,4.27,.25,8.56,0,12.81-.16,2.81-.96,5.59-1.55,8.37-.11,.51-.21,1.26-1.28,1.24-.25-.45-.65-.95-.82-1.52-.44-1.52-.78-3.06-1.15-4.59-.94-3.9-2.29-7.59-5.21-10.49-.57-.56-1.23-1.03-2.15-.01,.26,.61,.5,1.34,.85,2.01,2.57,4.8,3.26,9.9,2.25,15.19-.71,3.73-1.64,7.41-2.52,11.1-.13,.56-.54,1.05-1.14,2.17-.63-2.06-1.06-3.52-1.51-4.97-.9-2.87-1.79-5.74-2.73-8.59-.46-1.4-1.38-2.47-2.73-3.13-1.46-.72-3.01,.06-3.18,1.63-.03,.31-.06,.63-.04,.95,.27,4.98-1.04,9.72-2.15,14.49-.12,.51-.63,.94-1.09,1.57-.65-.61-1.15-1-1.54-1.46-3.09-3.61-6.24-7.16-9.22-10.86-2.84-3.53-6.4-6.57-7.84-11.1-.04-.14-.18-.27-.3-.36-2.35-1.77-3.95-4.55-7.24-5.08-.83-.13-1.62-.93-2.3-1.56-1.76-1.62-3.17-3.51-4.25-5.67-.86-1.71-1.89-3.31-4-3.58-.88,.58-1.66,1.09-2.71,1.77-1.11-.69-2.02-1.08-2.68-1.72Zm5.72-79.35c3.92-.99,6.69-7.28,4.79-10.86-1.35-2.54-4.26-3.49-6.88-2.25-3.46,1.64-5.38,4.97-4.87,8.4,.41,2.77,2.81,4.87,5.73,4.88,.29-.04,.77-.05,1.22-.17Z"/>
  <path class="cls-3" d="M179.9,75.57c1.05,0,2.31-.04,3.56,0,2.22,.1,3.88-.74,5.27-2.53,1.52-1.95,3.31-3.69,4.97-5.5-6.5-6.32-19.94-12.86-30.14-14.7,.07,.65,.02,1.27,.22,1.78,1.17,2.95,2.83,5.63,4.91,8.02,2.06,2.38,4.25,4.65,6.32,7.01,1.53,1.75,2.97,3.59,4.89,5.92Z"/>
  <path class="cls-2" d="M244.94,71.01c.29-.04,.77-.05,1.22-.17,3.92-.99,6.69-7.28,4.79-10.86-1.35-2.54-4.26-3.49-6.88-2.25-3.46,1.64-5.38,4.97-4.87,8.4,.41,2.77,2.81,4.87,5.73,4.88Z"/>
</svg>